<?xml version="1.0" standalone="no"?>
<!DOCTYPE svg PUBLIC "-//W3C//DTD SVG 1.1//EN" "http://www.w3.org/Graphics/SVG/1.1/DTD/svg11.dtd" >
<svg xmlns="http://www.w3.org/2000/svg">
<metadata>Generated by IcoMoon</metadata>
<defs>
<font id="icomoon" horiz-adv-x="1024">
<font-face units-per-em="1024" ascent="960" descent="-64" />
<missing-glyph horiz-adv-x="1024" />
<glyph unicode="&#x20;" horiz-adv-x="512" d="" />
<glyph unicode="&#x2714;" glyph-name="star-empty" horiz-adv-x="950" d="M650.24 386.56l174.080 169.984-240.64 34.816-108.544 218.112-107.52-218.112-241.664-34.816 175.104-169.984-41.984-240.64 216.064 113.664 216.064-113.664zM951.296 590.336q0-12.288-15.36-27.648l-206.848-201.728 49.152-285.696q0-4.096 0-12.288 0-28.672-23.552-28.672-10.24 0-22.528 7.168l-257.024 135.168-256-135.168q-12.288-7.168-23.552-7.168t-17.408 9.216-6.144 19.456q0 4.096 1.024 12.288l49.152 285.696-207.872 201.728q-14.336 15.36-14.336 27.648 0 21.504 31.744 26.624l286.72 40.96 129.024 260.096q11.264 23.552 27.648 23.552t28.672-23.552l128-260.096 286.72-40.96q32.768-5.12 32.768-26.624z" />
<glyph unicode="&#x2716;" glyph-name="user" horiz-adv-x="731" d="M731.136 160.256q0-61.44-35.84-106.496t-86.016-45.056h-487.424q-50.176 0-86.016 45.056t-35.84 106.496q0 49.152 5.12 92.16t17.408 87.040 33.792 74.752 53.248 51.2 77.824 19.456q74.752-73.728 178.176-73.728t179.2 73.728q43.008 0 76.8-19.456t53.248-51.2 33.792-74.752 18.432-87.040 4.096-92.16zM584.704 667.136q0-90.112-63.488-154.624t-155.648-64.512-154.624 64.512-64.512 154.624 64.512 155.648 154.624 64.512 155.648-64.512 63.488-155.648z" />
<glyph unicode="&#xe09e;" glyph-name="resize-full" horiz-adv-x="634" d="M190.464 506.368l-115.712 118.784-74.752-74.752v215.040h215.040l-73.728-74.752 117.76-117.76zM190.464 389.632l68.608-67.584-117.76-116.736 73.728-73.728h-215.040v215.040l74.752-74.752zM441.344 506.368l-66.56 66.56 117.76 117.76-73.728 74.752h215.040v-215.040l-74.752 73.728zM559.104 271.872l74.752 74.752v-215.040h-215.040l73.728 73.728-117.76 116.736 66.56 67.584z" />
<glyph unicode="&#xe744;" glyph-name="login" horiz-adv-x="922" d="M819.2 908.8q43.008 0 72.704-29.696t29.696-72.704v-716.8q0-40.96-29.696-71.68t-72.704-30.72h-460.8q-40.96 0-70.656 30.72t-29.696 71.68v102.4h100.352v-102.4h460.8v716.8h-460.8v-153.6h-100.352v153.6q0 43.008 29.696 72.704t70.656 29.696h460.8zM460.8 222.72v122.88h-460.8v153.6h460.8v122.88l204.8-198.656z" />
<glyph unicode="&#xe750;" glyph-name="search1" horiz-adv-x="950" d="M658.432 484.864q0 105.472-74.752 180.224t-181.248 75.776-181.248-75.776-74.752-180.224 74.752-181.248 181.248-74.752 181.248 74.752 74.752 181.248zM951.296 8.704q0-29.696-22.528-51.2t-51.2-21.504q-30.72 0-51.2 21.504l-195.584 195.584q-102.4-70.656-228.352-70.656-81.92 0-156.672 31.744t-128 86.016-86.016 128-31.744 156.672 31.744 155.648 86.016 129.024 128 86.016 156.672 31.744 156.672-31.744 128-86.016 86.016-129.024 31.744-155.648q0-125.952-70.656-228.352l195.584-195.584q21.504-21.504 21.504-52.224z" />
<glyph unicode="&#xe751;" glyph-name="mail-alt" d="M1024 554.496v-453.632q0-37.888-26.624-64.512t-64.512-27.648h-841.728q-36.864 0-64.512 27.648t-26.624 64.512v453.632q25.6-27.648 57.344-50.176 206.848-140.288 284.672-196.608 32.768-24.576 52.224-37.888t54.272-27.648 62.464-13.312h2.048q28.672 0 62.464 13.312t54.272 27.648 52.224 37.888q97.28 69.632 284.672 196.608 32.768 22.528 57.344 50.176zM1024 722.432q0-45.056-27.648-86.016t-69.632-70.656q-215.040-149.504-268.288-185.344-5.12-4.096-23.552-17.408t-30.72-22.528-29.696-18.432-32.768-15.36-28.672-5.12h-2.048q-12.288 0-27.648 5.12t-32.768 15.36-30.72 18.432-30.72 22.528-23.552 17.408q-52.224 35.84-150.528 103.424t-116.736 81.92q-35.84 23.552-66.56 65.536t-31.744 78.848q0 44.032 23.552 73.728t67.584 29.696h841.728q36.864 0 64.512-26.624t26.624-64.512z" />
<glyph unicode="&#xe800;" glyph-name="gauge" d="M0 282.112q0 211.968 150.528 362.496t361.472 149.504 362.496-149.504 149.504-362.496q0-94.208-31.744-180.224h-140.288q44.032 83.968 44.032 180.224 0 157.696-111.616 271.36t-272.384 112.64-272.384-112.64-111.616-271.36q0-96.256 44.032-180.224h-140.288q-31.744 86.016-31.744 180.224zM256 466.432q0 25.6 19.456 45.056t45.056 18.432 44.032-18.432 19.456-45.056-19.456-45.056-44.032-19.456-45.056 19.456-19.456 45.056zM448.512 527.872q0 26.624 18.432 45.056t45.056 19.456 45.056-19.456 19.456-45.056-19.456-45.056-45.056-18.432-45.056 18.432-18.432 45.056zM461.824 101.888v50.176l50.176 251.904 50.176-251.904v-50.176h-100.352zM640 466.432q0 25.6 19.456 45.056t45.056 18.432 44.032-18.432 19.456-45.056-19.456-45.056-44.032-19.456-45.056 19.456-19.456 45.056z" />
<glyph unicode="&#xe801;" glyph-name="zoom-in" horiz-adv-x="701" d="M0 361.984c-118.784 120.832-118.784 316.416 0 437.248 121.856 119.808 316.416 119.808 438.272 0 113.664-114.688 109.568-307.2 13.312-418.816l117.76-40.96 132.096-133.12c23.552-29.696 20.48-72.704-7.168-101.376-27.648-26.624-69.632-29.696-100.352-7.168l-133.12 133.12-40.96 114.688c-112.64-94.208-304.128-97.28-419.84 16.384zM378.88 420.352c90.112 89.088 90.112 232.448 0 320.512-88.064 90.112-231.424 90.112-321.536 0-88.064-88.064-88.064-231.424 0-320.512 90.112-89.088 233.472-89.088 321.536 0zM81.92 615.936h102.4v103.424h69.632v-103.424h100.352v-65.536h-100.352v-102.4h-69.632v102.4h-102.4v65.536z" />
<glyph unicode="&#xe802;" glyph-name="zoom-out" horiz-adv-x="700" d="M0 361.984c-120.832 120.832-120.832 316.416 0 437.248s316.416 119.808 436.224 0c114.688-114.688 110.592-307.2 15.36-418.816l116.736-40.96 132.096-133.12c22.528-29.696 20.48-72.704-8.192-101.376-26.624-26.624-68.608-29.696-99.328-7.168l-133.12 133.12-40.96 114.688c-112.64-94.208-305.152-97.28-418.816 16.384zM377.856 420.352c89.088 88.064 89.088 232.448 0 320.512-87.040 90.112-231.424 90.112-321.536 0-88.064-88.064-88.064-232.448 0-320.512 90.112-89.088 234.496-89.088 321.536 0zM80.896 632.32h272.384v-97.28h-272.384v97.28z" />
<glyph unicode="&#xe803;" glyph-name="star" horiz-adv-x="950" d="M951.296 590.336q0-12.288-15.36-27.648l-206.848-201.728 49.152-285.696q0-4.096 0-12.288 0-11.264-6.144-19.456t-17.408-9.216q-10.24 0-22.528 7.168l-257.024 135.168-256-135.168q-12.288-7.168-23.552-7.168t-17.408 9.216-6.144 19.456q0 4.096 1.024 12.288l49.152 285.696-207.872 201.728q-14.336 15.36-14.336 27.648 0 21.504 31.744 26.624l286.72 40.96 129.024 260.096q11.264 23.552 27.648 23.552t28.672-23.552l128-260.096 286.72-40.96q32.768-5.12 32.768-26.624z" />
<glyph unicode="&#xe804;" glyph-name="ok-circled" horiz-adv-x="878" d="M734.208 540.16q0 16.384-10.24 26.624l-52.224 51.2q-11.264 11.264-25.6 11.264t-25.6-11.264l-233.472-232.448-129.024 129.024q-11.264 11.264-25.6 11.264t-25.6-11.264l-52.224-51.2q-10.24-10.24-10.24-26.624 0-15.36 10.24-25.6l206.848-206.848q10.24-10.24 25.6-10.24t26.624 10.24l310.272 310.272q10.24 10.24 10.24 25.6zM877.568 448q0-119.808-58.368-220.16t-159.744-159.744-220.16-59.392-221.184 59.392-158.72 159.744-59.392 220.16 59.392 220.16 158.72 159.744 221.184 59.392 220.16-59.392 159.744-159.744 58.368-220.16z" />
<glyph unicode="&#xe805;" glyph-name="cancel-circled" horiz-adv-x="878" d="M656.384 318.976q0 14.336-10.24 25.6l-103.424 103.424 103.424 103.424q10.24 11.264 10.24 25.6 0 15.36-10.24 26.624l-52.224 51.2q-10.24 11.264-25.6 11.264t-25.6-11.264l-103.424-103.424-103.424 103.424q-11.264 11.264-25.6 11.264-16.384 0-26.624-11.264l-51.2-51.2q-11.264-11.264-11.264-26.624 0-14.336 11.264-25.6l103.424-103.424-103.424-103.424q-11.264-11.264-11.264-25.6 0-15.36 11.264-26.624l51.2-51.2q10.24-11.264 26.624-11.264 14.336 0 25.6 11.264l103.424 103.424 103.424-103.424q10.24-11.264 25.6-11.264t25.6 11.264l52.224 51.2q10.24 11.264 10.24 26.624zM877.568 448q0-119.808-58.368-220.16t-159.744-159.744-220.16-59.392-221.184 59.392-158.72 159.744-59.392 220.16 59.392 220.16 158.72 159.744 221.184 59.392 220.16-59.392 159.744-159.744 58.368-220.16z" />
<glyph unicode="&#xe806;" glyph-name="user-plus" horiz-adv-x="1169" d="M402.432 448q-91.136 0-155.648 64.512t-63.488 154.624 63.488 155.648 155.648 64.512 154.624-64.512 64.512-155.648-64.512-154.624-154.624-64.512zM951.296 375.296h200.704q7.168 0 13.312-6.144t5.12-12.288v-109.568q0-8.192-5.12-13.312t-13.312-5.12h-200.704v-201.728q0-7.168-6.144-12.288t-12.288-6.144h-109.568q-8.192 0-13.312 6.144t-5.12 12.288v201.728h-201.728q-7.168 0-12.288 5.12t-6.144 13.312v109.568q0 7.168 6.144 12.288t12.288 6.144h201.728v200.704q0 7.168 5.12 13.312t13.312 5.12h109.568q7.168 0 12.288-5.12t6.144-13.312v-200.704zM530.432 247.296q0-29.696 21.504-52.224t51.2-21.504h146.432v-136.192q-38.912-28.672-97.28-28.672h-499.712q-68.608 0-110.592 39.936t-41.984 108.544q0 30.72 2.048 59.392t8.192 62.464 15.36 61.44 24.576 56.32 34.816 46.080 49.152 30.72 63.488 11.264q11.264 0 22.528-10.24 45.056-34.816 88.064-52.224t94.208-17.408 94.208 17.408 88.064 52.224q11.264 10.24 22.528 10.24 74.752 0 123.904-55.296h-128q-29.696 0-51.2-21.504t-21.504-51.2v-109.568z" />
<glyph unicode="&#xe807;" glyph-name="users" horiz-adv-x="1097" d="M338.944 448q-92.16-3.072-151.552-72.704h-76.8q-46.080 0-78.848 22.528t-31.744 67.584q0 201.728 70.656 201.728 4.096 0 25.6-11.264t55.296-24.576 67.584-12.288q38.912 0 76.8 13.312-3.072-21.504-3.072-37.888 0-79.872 46.080-146.432zM951.296 83.456q0-67.584-41.984-107.52t-110.592-39.936h-499.712q-69.632 0-110.592 39.936t-41.984 107.52q0 30.72 2.048 59.392t8.192 62.464 14.336 62.464 24.576 55.296 35.84 46.080 49.152 30.72 63.488 11.264q6.144 0 24.576-12.288t41.984-26.624 60.416-27.648 77.824-12.288 76.8 12.288 61.44 27.648 41.984 26.624 24.576 12.288q34.816 0 63.488-11.264t48.128-30.72 35.84-46.080 24.576-55.296 15.36-62.464 8.192-62.464 2.048-59.392zM365.568 813.568q0-60.416-43.008-103.424t-103.424-43.008-103.424 43.008-43.008 103.424 43.008 103.424 103.424 43.008 103.424-43.008 43.008-103.424zM768 594.432q0-91.136-64.512-155.648t-154.624-63.488-155.648 63.488-64.512 155.648 64.512 154.624 155.648 64.512 154.624-64.512 64.512-154.624zM1096.704 465.408q0-44.032-31.744-67.584t-78.848-22.528h-76.8q-58.368 69.632-150.528 72.704 46.080 66.56 46.080 146.432 0 16.384-3.072 37.888 37.888-13.312 75.776-13.312 33.792 0 68.608 12.288t55.296 24.576 24.576 11.264q70.656 0 70.656-201.728zM1024 813.568q0-60.416-43.008-103.424t-103.424-43.008-103.424 43.008-43.008 103.424 43.008 103.424 103.424 43.008 103.424-43.008 43.008-103.424z" />
<glyph unicode="&#xe808;" glyph-name="th" d="M292.864 247.296v-110.592q0-22.528-16.384-37.888t-38.912-16.384h-182.272q-23.552 0-38.912 16.384t-16.384 37.888v110.592q0 22.528 16.384 38.912t38.912 15.36h182.272q23.552 0 38.912-15.36t16.384-38.912zM292.864 539.136v-109.568q0-22.528-16.384-38.912t-38.912-15.36h-182.272q-23.552 0-38.912 15.36t-16.384 38.912v109.568q0 23.552 16.384 38.912t38.912 16.384h182.272q23.552 0 38.912-16.384t16.384-38.912zM658.432 247.296v-110.592q0-22.528-16.384-37.888t-38.912-16.384h-182.272q-23.552 0-38.912 16.384t-16.384 37.888v110.592q0 22.528 16.384 38.912t38.912 15.36h182.272q23.552 0 38.912-15.36t16.384-38.912zM292.864 832v-109.568q0-22.528-16.384-38.912t-38.912-16.384h-182.272q-23.552 0-38.912 16.384t-16.384 38.912v109.568q0 22.528 16.384 38.912t38.912 16.384h182.272q23.552 0 38.912-16.384t16.384-38.912zM658.432 539.136v-109.568q0-22.528-16.384-38.912t-38.912-15.36h-182.272q-23.552 0-38.912 15.36t-16.384 38.912v109.568q0 23.552 16.384 38.912t38.912 16.384h182.272q23.552 0 38.912-16.384t16.384-38.912zM1024 247.296v-110.592q0-22.528-16.384-37.888t-38.912-16.384h-182.272q-22.528 0-38.912 16.384t-16.384 37.888v110.592q0 22.528 16.384 38.912t38.912 15.36h182.272q23.552 0 38.912-15.36t16.384-38.912zM658.432 832v-109.568q0-22.528-16.384-38.912t-38.912-16.384h-182.272q-23.552 0-38.912 16.384t-16.384 38.912v109.568q0 22.528 16.384 38.912t38.912 16.384h182.272q23.552 0 38.912-16.384t16.384-38.912zM1024 539.136v-109.568q0-22.528-16.384-38.912t-38.912-15.36h-182.272q-22.528 0-38.912 15.36t-16.384 38.912v109.568q0 23.552 16.384 38.912t38.912 16.384h182.272q23.552 0 38.912-16.384t16.384-38.912zM1024 832v-109.568q0-22.528-16.384-38.912t-38.912-16.384h-182.272q-22.528 0-38.912 16.384t-16.384 38.912v109.568q0 22.528 16.384 38.912t38.912 16.384h182.272q23.552 0 38.912-16.384t16.384-38.912z" />
<glyph unicode="&#xe809;" glyph-name="th-list" d="M292.864 247.296v-110.592q0-22.528-16.384-37.888t-38.912-16.384h-182.272q-23.552 0-38.912 16.384t-16.384 37.888v110.592q0 22.528 16.384 38.912t38.912 15.36h182.272q23.552 0 38.912-15.36t16.384-38.912zM292.864 539.136v-109.568q0-22.528-16.384-38.912t-38.912-15.36h-182.272q-23.552 0-38.912 15.36t-16.384 38.912v109.568q0 23.552 16.384 38.912t38.912 16.384h182.272q23.552 0 38.912-16.384t16.384-38.912zM1024 247.296v-110.592q0-22.528-16.384-37.888t-38.912-16.384h-547.84q-23.552 0-38.912 16.384t-16.384 37.888v110.592q0 22.528 16.384 38.912t38.912 15.36h547.84q23.552 0 38.912-15.36t16.384-38.912zM292.864 832v-109.568q0-22.528-16.384-38.912t-38.912-16.384h-182.272q-23.552 0-38.912 16.384t-16.384 38.912v109.568q0 22.528 16.384 38.912t38.912 16.384h182.272q23.552 0 38.912-16.384t16.384-38.912zM1024 539.136v-109.568q0-22.528-16.384-38.912t-38.912-15.36h-547.84q-23.552 0-38.912 15.36t-16.384 38.912v109.568q0 23.552 16.384 38.912t38.912 16.384h547.84q23.552 0 38.912-16.384t16.384-38.912zM1024 832v-109.568q0-22.528-16.384-38.912t-38.912-16.384h-547.84q-23.552 0-38.912 16.384t-16.384 38.912v109.568q0 22.528 16.384 38.912t38.912 16.384h547.84q23.552 0 38.912-16.384t16.384-38.912z" />
<glyph unicode="&#xe80a;" glyph-name="signout" horiz-adv-x="922" d="M514.048 89.6v102.4h100.352v-102.4q0-40.96-29.696-71.68t-72.704-30.72h-409.6q-40.96 0-71.68 30.72t-30.72 71.68v716.8q0 43.008 30.72 72.704t71.68 29.696h409.6q43.008 0 72.704-29.696t29.696-72.704v-153.6h-100.352v153.6h-411.648v-716.8h411.648zM921.6 423.424l-202.752-200.704v122.88h-460.8v153.6h460.8v122.88z" />
<glyph unicode="&#xe80b;" glyph-name="cancel" horiz-adv-x="804" d="M741.376 204.288q0-22.528-15.36-38.912l-77.824-77.824q-16.384-15.36-38.912-15.36t-38.912 15.36l-167.936 168.96-167.936-168.96q-16.384-15.36-38.912-15.36t-38.912 15.36l-77.824 77.824q-16.384 16.384-16.384 38.912t16.384 38.912l167.936 167.936-167.936 167.936q-16.384 16.384-16.384 38.912t16.384 38.912l77.824 77.824q16.384 16.384 38.912 16.384t38.912-16.384l167.936-167.936 167.936 167.936q16.384 16.384 38.912 16.384t38.912-16.384l77.824-77.824q15.36-15.36 15.36-38.912t-15.36-38.912l-167.936-167.936 167.936-167.936q15.36-15.36 15.36-38.912z" />
<glyph unicode="&#xe80c;" glyph-name="fire" horiz-adv-x="766" d="M7.168 333.312q10.24 41.984 51.2 134.144t45.056 149.504q39.936-73.728 46.080-148.48 151.552 188.416 157.696 438.272 10.24-6.144 25.6-17.408t59.392-46.080 75.776-75.776 62.464-98.304 34.816-120.832q15.36 36.864 19.456 80.896t-9.216 81.92q15.36-12.288 41.984-39.936t57.344-76.8 57.344-101.376 31.744-120.832-9.216-130.048-73.728-130.048-155.648-122.88q65.536 132.096 25.6 284.672t-157.696 234.496q10.24-44.032-11.264-144.384t-66.56-153.6q7.168 64.512 4.096 104.448t-12.288 60.416l-10.24 17.408q-12.288-71.68-61.44-143.36-26.624-38.912-39.936-70.656t-9.216-81.92 30.72-107.52q-138.24 77.824-185.344 157.696t-24.576 186.368z" />
<glyph unicode="&#xe80d;" glyph-name="minus" horiz-adv-x="804" d="M804.864 539.136v-109.568q0-22.528-16.384-38.912t-38.912-15.36h-694.272q-23.552 0-38.912 15.36t-16.384 38.912v109.568q0 23.552 16.384 38.912t38.912 16.384h694.272q23.552 0 38.912-16.384t16.384-38.912z" />
<glyph unicode="&#xe80e;" glyph-name="help-circled" horiz-adv-x="878" d="M512 173.568v109.568q0 8.192-5.12 13.312t-13.312 5.12h-109.568q-8.192 0-13.312-5.12t-5.12-13.312v-109.568q0-8.192 5.12-13.312t13.312-5.12h109.568q8.192 0 13.312 5.12t5.12 13.312zM658.432 557.568q0 50.176-31.744 93.184t-78.848 66.56-97.28 23.552q-139.264 0-211.968-121.856-9.216-13.312 4.096-24.576l75.776-56.32q4.096-4.096 10.24-4.096 9.216 0 14.336 7.168 30.72 38.912 49.152 52.224 19.456 14.336 49.152 14.336 27.648 0 49.152-15.36t21.504-33.792q0-21.504-11.264-34.816t-38.912-25.6q-35.84-15.36-66.56-49.152t-29.696-71.68v-20.48q0-8.192 5.12-13.312t13.312-5.12h109.568q8.192 0 13.312 5.12t5.12 13.312q0 10.24 12.288 27.648t30.72 28.672q18.432 10.24 28.672 16.384t25.6 19.456 25.6 27.648 16.384 34.816 7.168 46.080zM877.568 448q0-119.808-58.368-220.16t-159.744-159.744-220.16-59.392-221.184 59.392-158.72 159.744-59.392 220.16 59.392 220.16 158.72 159.744 221.184 59.392 220.16-59.392 159.744-159.744 58.368-220.16z" />
<glyph unicode="&#xe80f;" glyph-name="info-circled" horiz-adv-x="878" d="M584.704 173.568v91.136q0 8.192-5.12 13.312t-12.288 5.12h-55.296v292.864q0 8.192-5.12 13.312t-13.312 5.12h-182.272q-8.192 0-13.312-5.12t-5.12-13.312v-91.136q0-8.192 5.12-13.312t13.312-5.12h54.272v-183.296h-54.272q-8.192 0-13.312-5.12t-5.12-13.312v-91.136q0-8.192 5.12-13.312t13.312-5.12h256q7.168 0 12.288 5.12t5.12 13.312zM512 685.568v91.136q0 8.192-5.12 13.312t-13.312 5.12h-109.568q-8.192 0-13.312-5.12t-5.12-13.312v-91.136q0-8.192 5.12-13.312t13.312-5.12h109.568q8.192 0 13.312 5.12t5.12 13.312zM877.568 448q0-119.808-58.368-220.16t-159.744-159.744-220.16-59.392-221.184 59.392-158.72 159.744-59.392 220.16 59.392 220.16 158.72 159.744 221.184 59.392 220.16-59.392 159.744-159.744 58.368-220.16z" />
<glyph unicode="&#xe810;" glyph-name="home" horiz-adv-x="950" d="M804.864 392.704v-273.408q0-15.36-11.264-25.6t-25.6-11.264h-219.136v219.136h-146.432v-219.136h-219.136q-15.36 0-25.6 11.264t-11.264 25.6v273.408q0 1.024 0 2.048t0 2.048l328.704 270.336 328.704-270.336q1.024-1.024 1.024-4.096zM931.84 432.64l-34.816-41.984q-5.12-5.12-12.288-6.144h-2.048q-7.168 0-12.288 3.072l-395.264 329.728-395.264-329.728q-7.168-4.096-13.312-3.072-7.168 1.024-12.288 6.144l-35.84 41.984q-4.096 6.144-3.072 13.312t6.144 12.288l410.624 342.016q18.432 15.36 43.008 15.36t44.032-15.36l139.264-115.712v110.592q0 8.192 5.12 13.312t13.312 5.12h109.568q8.192 0 13.312-5.12t5.12-13.312v-232.448l124.928-104.448q6.144-4.096 6.144-12.288t-4.096-13.312z" />
<glyph unicode="&#xe811;" glyph-name="link" horiz-adv-x="950" d="M832.512 264.704q0 23.552-16.384 38.912l-118.784 118.784q-16.384 16.384-38.912 16.384-24.576 0-40.96-18.432 1.024-1.024 10.24-10.24t12.288-12.288 9.216-11.264 7.168-14.336 2.048-15.36q0-23.552-16.384-38.912t-38.912-16.384q-8.192 0-15.36 2.048t-14.336 7.168-11.264 9.216-12.288 12.288-10.24 10.24q-19.456-17.408-19.456-40.96t16.384-38.912l117.76-118.784q15.36-15.36 38.912-15.36 22.528 0 38.912 15.36l83.968 82.944q16.384 16.384 16.384 37.888zM430.080 668.16q0 22.528-15.36 38.912l-117.76 117.76q-16.384 16.384-38.912 16.384t-38.912-15.36l-83.968-83.968q-16.384-15.36-16.384-37.888t16.384-38.912l118.784-118.784q15.36-15.36 38.912-15.36t40.96 17.408q-2.048 2.048-11.264 11.264t-12.288 12.288-8.192 10.24-7.168 14.336-2.048 16.384q0 22.528 15.36 38.912t38.912 15.36q9.216 0 16.384-2.048t14.336-7.168 11.264-8.192 12.288-12.288 10.24-11.264q18.432 17.408 18.432 41.984zM942.080 264.704q0-67.584-49.152-115.712l-83.968-82.944q-47.104-48.128-115.712-48.128-69.632 0-116.736 49.152l-117.76 117.76q-47.104 48.128-47.104 116.736 0 69.632 50.176 118.784l-50.176 50.176q-49.152-50.176-118.784-50.176-68.608 0-116.736 48.128l-118.784 118.784q-48.128 48.128-48.128 116.736t48.128 115.712l83.968 83.968q48.128 47.104 116.736 47.104t116.736-48.128l117.76-118.784q47.104-47.104 47.104-115.712 0-70.656-50.176-119.808l50.176-50.176q49.152 50.176 118.784 50.176 68.608 0 116.736-48.128l118.784-118.784q48.128-48.128 48.128-116.736z" />
<glyph unicode="&#xe812;" glyph-name="attach" horiz-adv-x="804" d="M802.816 168.448q0-66.56-46.080-111.616t-111.616-45.056q-76.8 0-134.144 56.32l-444.416 444.416q-64.512 65.536-64.512 154.624 0 91.136 63.488 153.6t153.6 63.488q90.112 0 155.648-64.512l346.112-346.112q5.12-5.12 5.12-12.288 0-9.216-17.408-26.624t-26.624-17.408q-7.168 0-12.288 5.12l-347.136 347.136q-45.056 44.032-103.424 44.032-60.416 0-102.4-43.008t-40.96-103.424q0-59.392 43.008-103.424l443.392-443.392q35.84-36.864 82.944-36.864 36.864 0 60.416 24.576t24.576 60.416q0 47.104-35.84 82.944l-332.8 331.776q-14.336 14.336-33.792 14.336-16.384 0-27.648-11.264t-11.264-27.648q0-18.432 14.336-33.792l234.496-233.472q6.144-6.144 6.144-13.312 0-9.216-18.432-26.624t-26.624-17.408q-6.144 0-12.288 5.12l-234.496 234.496q-35.84 34.816-35.84 84.992 0 47.104 32.768 79.872t78.848 32.768q50.176 0 86.016-35.84l331.776-332.8q57.344-55.296 57.344-134.144z" />
<glyph unicode="&#xe813;" glyph-name="lock" horiz-adv-x="657" d="M183.296 520.704h291.84v110.592q0 60.416-43.008 103.424t-103.424 41.984-103.424-41.984-41.984-103.424v-110.592zM658.432 466.432v-329.728q0-22.528-16.384-37.888t-38.912-16.384h-547.84q-23.552 0-38.912 16.384t-16.384 37.888v329.728q0 22.528 16.384 38.912t38.912 15.36h17.408v110.592q0 104.448 75.776 180.224t180.224 75.776 181.248-75.776 74.752-180.224v-110.592h18.432q23.552 0 38.912-15.36t16.384-38.912z" />
<glyph unicode="&#xe814;" glyph-name="lock-open" horiz-adv-x="950" d="M951.296 631.296v-146.432q0-15.36-11.264-25.6t-25.6-11.264h-36.864q-14.336 0-25.6 11.264t-11.264 25.6v146.432q0 60.416-41.984 103.424t-103.424 41.984-103.424-41.984-43.008-103.424v-110.592h54.272q23.552 0 38.912-15.36t16.384-38.912v-329.728q0-22.528-16.384-37.888t-38.912-16.384h-547.84q-23.552 0-38.912 16.384t-16.384 37.888v329.728q0 22.528 16.384 38.912t38.912 15.36h384v110.592q0 105.472 74.752 180.224t181.248 75.776 180.224-75.776 75.776-180.224z" />
<glyph unicode="&#xe815;" glyph-name="eye" d="M951.296 411.136q-87.040 135.168-218.112 201.728 34.816-59.392 34.816-128 0-105.472-74.752-181.248t-181.248-74.752-181.248 74.752-74.752 181.248q0 68.608 34.816 128-131.072-66.56-218.112-201.728 76.8-116.736 191.488-186.368t247.808-69.632 248.832 69.632 190.464 186.368zM539.648 631.296q0 11.264-8.192 19.456t-19.456 7.168q-71.68 0-122.88-51.2t-51.2-121.856q0-11.264 8.192-19.456t19.456-8.192 19.456 8.192 8.192 19.456q0 49.152 34.816 83.968t83.968 34.816q11.264 0 19.456 8.192t8.192 19.456zM1024 411.136q0-19.456-11.264-38.912-79.872-132.096-215.040-210.944t-285.696-78.848-285.696 78.848-215.040 210.944q-11.264 19.456-11.264 38.912t11.264 39.936q79.872 131.072 215.040 209.92t285.696 79.872 285.696-79.872 215.040-209.92q11.264-20.48 11.264-39.936z" />
<glyph unicode="&#xe816;" glyph-name="eye-off" d="M317.44 197.12l44.032 80.896q-49.152 35.84-77.824 90.112t-27.648 116.736q0 68.608 34.816 128-131.072-66.56-218.112-201.728 96.256-147.456 244.736-214.016zM539.648 631.296q0 11.264-8.192 19.456t-19.456 7.168q-71.68 0-122.88-51.2t-51.2-121.856q0-11.264 8.192-19.456t19.456-8.192 19.456 8.192 8.192 19.456q0 49.152 34.816 83.968t83.968 34.816q11.264 0 19.456 8.192t8.192 19.456zM746.496 739.84q0-4.096 0-5.12-60.416-107.52-180.224-323.584t-180.224-323.584l-28.672-51.2q-5.12-9.216-15.36-9.216-7.168 0-76.8 39.936-9.216 6.144-9.216 16.384 0 7.168 25.6 50.176-81.92 36.864-150.528 98.304t-119.808 140.288q-11.264 17.408-11.264 38.912t11.264 39.936q88.064 134.144 217.088 211.968t283.648 77.824q51.2 0 102.4-10.24l31.744 55.296q5.12 9.216 15.36 9.216 3.072 0 10.24-3.072t18.432-9.216 18.432-10.24 18.432-10.24 10.24-7.168q9.216-5.12 9.216-15.36zM768 484.864q0-79.872-45.056-145.408t-119.808-93.184l160.768 286.72q4.096-25.6 4.096-48.128zM1024 411.136q0-19.456-11.264-38.912-22.528-36.864-62.464-82.944-86.016-98.304-198.656-152.576t-239.616-54.272l41.984 75.776q121.856 10.24 224.256 77.824t173.056 175.104q-66.56 102.4-161.792 167.936l35.84 64.512q54.272-36.864 104.448-87.040t82.944-105.472q11.264-19.456 11.264-39.936z" />
<glyph unicode="&#xe817;" glyph-name="tag" horiz-adv-x="878" d="M256 704q0 30.72-21.504 52.224t-51.2 20.48-52.224-20.48-21.504-52.224 21.504-51.2 52.224-21.504 51.2 21.504 21.504 51.2zM865.28 375.296q0-30.72-20.48-52.224l-280.576-280.576q-22.528-21.504-52.224-21.504-30.72 0-51.2 21.504l-408.576 408.576q-21.504 21.504-36.864 58.368t-15.36 66.56v237.568q0 29.696 21.504 51.2t51.2 22.528h238.592q29.696 0 66.56-15.36t58.368-36.864l408.576-408.576q20.48-21.504 20.48-51.2z" />
<glyph unicode="&#xe818;" glyph-name="tags" horiz-adv-x="1097" d="M256 704q0 30.72-21.504 52.224t-51.2 20.48-52.224-20.48-21.504-52.224 21.504-51.2 52.224-21.504 51.2 21.504 21.504 51.2zM865.28 375.296q0-30.72-20.48-52.224l-280.576-280.576q-22.528-21.504-52.224-21.504-30.72 0-51.2 21.504l-408.576 408.576q-21.504 21.504-36.864 58.368t-15.36 66.56v237.568q0 29.696 21.504 51.2t51.2 22.528h238.592q29.696 0 66.56-15.36t58.368-36.864l408.576-408.576q20.48-21.504 20.48-51.2zM1085.44 375.296q0-30.72-21.504-52.224l-280.576-280.576q-22.528-21.504-52.224-21.504-20.48 0-33.792 8.192t-29.696 25.6l268.288 268.288q21.504 21.504 21.504 52.224 0 29.696-21.504 51.2l-408.576 408.576q-21.504 21.504-58.368 36.864t-66.56 15.36h128q29.696 0 66.56-15.36t58.368-36.864l408.576-408.576q21.504-21.504 21.504-51.2z" />
<glyph unicode="&#xe819;" glyph-name="bookmark" horiz-adv-x="731" d="M665.6 887.296q12.288 0 24.576-5.12 19.456-8.192 29.696-23.552t11.264-35.84v-736.256q0-19.456-11.264-35.84t-29.696-23.552q-10.24-4.096-24.576-4.096-27.648 0-48.128 18.432l-251.904 241.664-251.904-241.664q-20.48-19.456-47.104-19.456-13.312 0-25.6 5.12-18.432 7.168-29.696 23.552t-11.264 35.84v736.256q0 19.456 11.264 35.84t29.696 23.552q12.288 5.12 25.6 5.12h599.040z" />
<glyph unicode="&#xe81a;" glyph-name="download-cloud" horiz-adv-x="1097" d="M731.136 429.568q0 8.192-5.12 13.312t-13.312 5.12h-128v200.704q0 8.192-5.12 13.312t-12.288 5.12h-110.592q-7.168 0-12.288-5.12t-5.12-13.312v-200.704h-128q-8.192 0-13.312-5.12t-5.12-13.312 5.12-13.312l200.704-200.704q5.12-5.12 13.312-5.12t13.312 5.12l200.704 200.704q5.12 6.144 5.12 13.312zM1096.704 301.568q0-91.136-63.488-154.624t-155.648-64.512h-621.568q-105.472 0-181.248 74.752t-74.752 181.248q0 73.728 39.936 137.216t107.52 94.208q-1.024 17.408-1.024 24.576 0 120.832 86.016 206.848t206.848 86.016q89.088 0 162.816-50.176t107.52-132.096q40.96 35.84 95.232 35.84 60.416 0 103.424-43.008t43.008-103.424q0-44.032-23.552-78.848 73.728-17.408 121.856-77.824t47.104-136.192z" />
<glyph unicode="&#xe81b;" glyph-name="upload-cloud" horiz-adv-x="1097" d="M731.136 466.432q0 8.192-5.12 13.312l-200.704 200.704q-5.12 5.12-13.312 5.12t-13.312-5.12l-200.704-200.704q-5.12-6.144-5.12-13.312 0-8.192 5.12-13.312t13.312-5.12h128v-200.704q0-8.192 5.12-13.312t12.288-5.12h110.592q7.168 0 12.288 5.12t5.12 13.312v200.704h128q8.192 0 13.312 5.12t5.12 13.312zM1096.704 301.568q0-91.136-63.488-154.624t-155.648-64.512h-621.568q-105.472 0-181.248 74.752t-74.752 181.248q0 73.728 39.936 137.216t107.52 94.208q-1.024 17.408-1.024 24.576 0 120.832 86.016 206.848t206.848 86.016q89.088 0 162.816-50.176t107.52-132.096q40.96 35.84 95.232 35.84 60.416 0 103.424-43.008t43.008-103.424q0-44.032-23.552-78.848 73.728-17.408 121.856-77.824t47.104-136.192z" />
<glyph unicode="&#xe81c;" glyph-name="quote-right" horiz-adv-x="950" d="M439.296 776.704v-401.408q0-59.392-23.552-113.664t-62.464-93.184-93.184-62.464-113.664-23.552h-36.864q-14.336 0-25.6 11.264t-11.264 25.6v72.704q0 15.36 11.264 25.6t25.6 11.264h36.864q60.416 0 103.424 43.008t43.008 103.424v17.408q0 23.552-16.384 38.912t-38.912 16.384h-128q-45.056 0-77.824 31.744t-31.744 77.824v219.136q0 46.080 31.744 77.824t77.824 32.768h219.136q46.080 0 77.824-32.768t32.768-77.824zM951.296 776.704v-401.408q0-59.392-23.552-113.664t-62.464-93.184-93.184-62.464-113.664-23.552h-36.864q-14.336 0-25.6 11.264t-11.264 25.6v72.704q0 15.36 11.264 25.6t25.6 11.264h36.864q60.416 0 103.424 43.008t43.008 103.424v17.408q0 23.552-16.384 38.912t-38.912 16.384h-128q-45.056 0-77.824 31.744t-31.744 77.824v219.136q0 46.080 31.744 77.824t77.824 32.768h219.136q46.080 0 77.824-32.768t32.768-77.824z" />
<glyph unicode="&#xe81d;" glyph-name="share" horiz-adv-x="878" d="M695.296 375.296q75.776 0 129.024-54.272t53.248-129.024-53.248-129.024-129.024-54.272-130.048 54.272-53.248 129.024q0 7.168 1.024 19.456l-205.824 102.4q-52.224-49.152-123.904-49.152-76.8 0-130.048 54.272t-53.248 129.024 53.248 129.024 130.048 54.272q71.68 0 123.904-49.152l205.824 102.4q-1.024 12.288-1.024 19.456 0 75.776 53.248 129.024t130.048 54.272 129.024-54.272 53.248-129.024-53.248-129.024-129.024-54.272q-72.704 0-124.928 49.152l-205.824-102.4q1.024-12.288 1.024-19.456t-1.024-19.456l205.824-102.4q52.224 49.152 124.928 49.152z" />
<glyph unicode="&#xe81e;" glyph-name="pencil" horiz-adv-x="878" d="M207.872 82.432l51.2 52.224-134.144 134.144-52.224-52.224v-61.44h73.728v-72.704h61.44zM505.856 612.864q0 12.288-12.288 12.288-5.12 0-9.216-4.096l-310.272-309.248q-4.096-4.096-4.096-10.24 0-12.288 13.312-12.288 5.12 0 9.216 4.096l310.272 309.248q3.072 4.096 3.072 10.24zM475.136 722.432l237.568-237.568-475.136-476.16h-237.568v238.592zM865.28 667.136q0-29.696-20.48-51.2l-95.232-95.232-237.568 238.592 95.232 94.208q20.48 21.504 51.2 21.504 29.696 0 52.224-21.504l134.144-134.144q20.48-22.528 20.48-52.224z" />
<glyph unicode="&#xe820;" glyph-name="direction" horiz-adv-x="804" d="M800.768 760.32l-365.568-731.136q-10.24-20.48-32.768-20.48-3.072 0-8.192 1.024-13.312 3.072-20.48 13.312t-8.192 22.528v329.728h-328.704q-13.312 0-22.528 7.168t-13.312 20.48 2.048 23.552 17.408 17.408l731.136 365.568q7.168 4.096 16.384 4.096 15.36 0 25.6-10.24 9.216-8.192 10.24-20.48t-3.072-22.528z" />
<glyph unicode="&#xe821;" glyph-name="squares" horiz-adv-x="886" d="M318.464 605.696h500.736c36.864 0 66.56-30.72 66.56-66.56v-413.696c0-35.84-29.696-66.56-66.56-66.56h-500.736c-35.84 0-66.56 30.72-66.56 66.56v413.696c0 35.84 30.72 66.56 66.56 66.56zM783.36 509.44h-429.056v-354.304h429.056v354.304zM633.856 694.784h-103.424v45.056h-427.008v-344.064h59.392v-97.28h-95.232c-36.864 0-67.584 30.72-67.584 66.56v404.48c0 36.864 30.72 67.584 67.584 67.584h499.712c36.864 0 66.56-30.72 66.56-67.584v-74.752z" />
<glyph unicode="&#xe822;" glyph-name="trash" horiz-adv-x="804" d="M292.864 539.136v-328.704q0-8.192-5.12-13.312t-13.312-5.12h-36.864q-8.192 0-13.312 5.12t-5.12 13.312v328.704q0 8.192 5.12 13.312t13.312 5.12h36.864q8.192 0 13.312-5.12t5.12-13.312zM439.296 539.136v-328.704q0-8.192-5.12-13.312t-13.312-5.12h-36.864q-8.192 0-13.312 5.12t-5.12 13.312v328.704q0 8.192 5.12 13.312t13.312 5.12h36.864q8.192 0 13.312-5.12t5.12-13.312zM584.704 539.136v-328.704q0-8.192-5.12-13.312t-12.288-5.12h-36.864q-8.192 0-13.312 5.12t-5.12 13.312v328.704q0 8.192 5.12 13.312t13.312 5.12h36.864q7.168 0 12.288-5.12t5.12-13.312zM658.432 125.44v541.696h-512v-541.696q0-12.288 4.096-22.528t8.192-15.36 6.144-5.12h475.136q2.048 0 6.144 5.12t8.192 15.36 4.096 22.528zM274.432 740.864h256l-27.648 66.56q-4.096 5.12-9.216 6.144h-181.248q-6.144-1.024-10.24-6.144zM804.864 722.432v-36.864q0-8.192-5.12-13.312t-13.312-5.12h-55.296v-541.696q0-47.104-26.624-81.92t-64.512-34.816h-475.136q-37.888 0-64.512 33.792t-27.648 80.896v543.744h-54.272q-8.192 0-13.312 5.12t-5.12 13.312v36.864q0 8.192 5.12 13.312t13.312 5.12h176.128l39.936 95.232q9.216 21.504 31.744 35.84t45.056 15.36h182.272q23.552 0 45.056-15.36t30.72-35.84l39.936-95.232h177.152q8.192 0 13.312-5.12t5.12-13.312z" />
<glyph unicode="&#xe823;" glyph-name="doc" horiz-adv-x="878" d="M838.656 742.912q16.384-16.384 27.648-43.008t11.264-51.2v-657.408q0-23.552-15.36-38.912t-38.912-16.384h-768q-23.552 0-38.912 16.384t-16.384 38.912v913.408q0 23.552 16.384 38.912t38.912 16.384h512q22.528 0 50.176-11.264t43.008-27.648zM584.704 882.176v-215.040h215.040q-5.12 17.408-12.288 23.552l-179.2 179.2q-6.144 7.168-23.552 12.288zM804.864 8.704v585.728h-237.568q-23.552 0-38.912 16.384t-16.384 37.888v238.592h-439.296v-878.592h732.16z" />
<glyph unicode="&#xe824;" glyph-name="rss" horiz-adv-x="804" d="M219.136 192q0-46.080-31.744-77.824t-77.824-31.744-77.824 31.744-31.744 77.824 31.744 77.824 77.824 31.744 77.824-31.744 31.744-77.824zM512 121.344q1.024-15.36-9.216-26.624-10.24-12.288-27.648-12.288h-76.8q-14.336 0-24.576 9.216t-11.264 23.552q-12.288 131.072-105.472 224.256t-224.256 105.472q-14.336 1.024-23.552 11.264t-9.216 24.576v76.8q0 16.384 12.288 26.624 9.216 10.24 24.576 10.24h3.072q91.136-7.168 174.080-46.080t148.48-103.424q64.512-64.512 103.424-148.48t46.080-175.104zM804.864 120.32q1.024-15.36-10.24-26.624-10.24-11.264-26.624-11.264h-81.92q-14.336 0-25.6 10.24t-10.24 23.552q-7.168 122.88-58.368 233.472t-132.096 192.512-192.512 132.096-232.448 58.368q-14.336 1.024-24.576 11.264t-10.24 24.576v81.92q0 16.384 11.264 26.624 10.24 10.24 25.6 10.24h1.024q150.528-8.192 286.72-68.608t243.712-167.936q106.496-106.496 167.936-243.712t68.608-286.72z" />
<glyph unicode="&#xe825;" glyph-name="menu" horiz-adv-x="878" d="M877.568 192v-72.704q0-15.36-10.24-25.6t-26.624-11.264h-803.84q-15.36 0-25.6 11.264t-11.264 25.6v72.704q0 15.36 11.264 25.6t25.6 11.264h803.84q15.36 0 26.624-11.264t10.24-25.6zM877.568 484.864v-73.728q0-14.336-10.24-25.6t-26.624-10.24h-803.84q-15.36 0-25.6 10.24t-11.264 25.6v73.728q0 14.336 11.264 25.6t25.6 10.24h803.84q15.36 0 26.624-10.24t10.24-25.6zM877.568 776.704v-72.704q0-14.336-10.24-25.6t-26.624-11.264h-803.84q-15.36 0-25.6 11.264t-11.264 25.6v72.704q0 15.36 11.264 26.624t25.6 10.24h803.84q15.36 0 26.624-10.24t10.24-26.624z" />
<glyph unicode="&#xe826;" glyph-name="cog" horiz-adv-x="878" d="M584.704 448q0 60.416-41.984 103.424t-103.424 43.008-103.424-43.008-43.008-103.424 43.008-103.424 103.424-43.008 103.424 43.008 41.984 103.424zM877.568 510.464v-126.976q0-7.168-4.096-13.312t-11.264-7.168l-106.496-16.384q-10.24-30.72-21.504-52.224 19.456-27.648 60.416-78.848 6.144-6.144 6.144-13.312t-5.12-13.312q-15.36-21.504-56.32-62.464t-54.272-39.936q-7.168 0-14.336 5.12l-78.848 61.44q-25.6-13.312-52.224-21.504-9.216-77.824-16.384-106.496-4.096-16.384-20.48-16.384h-126.976q-8.192 0-14.336 5.12t-6.144 12.288l-16.384 105.472q-27.648 9.216-51.2 21.504l-80.896-61.44q-6.144-5.12-14.336-5.12t-14.336 6.144q-71.68 65.536-94.208 96.256-4.096 5.12-4.096 13.312 0 6.144 5.12 12.288 8.192 12.288 28.672 37.888t30.72 40.96q-15.36 28.672-23.552 56.32l-104.448 15.36q-7.168 1.024-11.264 7.168t-5.12 13.312v126.976q0 7.168 5.12 13.312t10.24 7.168l106.496 16.384q8.192 25.6 22.528 52.224-23.552 32.768-61.44 78.848-6.144 7.168-6.144 14.336 0 5.12 5.12 12.288 15.36 20.48 56.32 61.44t54.272 40.96q7.168 0 15.36-5.12l78.848-61.44q24.576 13.312 51.2 21.504 9.216 77.824 17.408 106.496 3.072 16.384 20.48 16.384h126.976q7.168 0 13.312-5.12t7.168-12.288l15.36-105.472q28.672-9.216 52.224-20.48l80.896 60.416q5.12 5.12 13.312 5.12 7.168 0 14.336-5.12 73.728-68.608 94.208-97.28 4.096-5.12 4.096-12.288t-4.096-13.312q-9.216-12.288-29.696-37.888t-30.72-40.96q15.36-28.672 23.552-55.296l104.448-16.384q7.168-1.024 12.288-7.168t4.096-13.312z" />
<glyph unicode="&#xe827;" glyph-name="cog-alt" horiz-adv-x="1097" d="M512 448q0 60.416-43.008 103.424t-103.424 43.008-103.424-43.008-43.008-103.424 43.008-103.424 103.424-43.008 103.424 43.008 43.008 103.424zM951.296 155.136q0 29.696-22.528 52.224t-51.2 21.504-51.2-21.504-21.504-52.224q0-29.696 21.504-51.2t51.2-21.504 52.224 21.504 21.504 51.2zM951.296 740.864q0 29.696-22.528 51.2t-51.2 21.504-51.2-21.504-21.504-51.2q0-30.72 21.504-52.224t51.2-21.504 52.224 21.504 21.504 52.224zM731.136 500.224v-105.472q0-6.144-4.096-11.264t-8.192-6.144l-89.088-14.336q-6.144-19.456-18.432-43.008 19.456-27.648 51.2-65.536 4.096-6.144 4.096-11.264 0-7.168-4.096-11.264-12.288-17.408-47.104-51.2t-44.032-33.792q-7.168 0-12.288 4.096l-65.536 51.2q-21.504-11.264-44.032-17.408-6.144-61.44-13.312-89.088-4.096-13.312-17.408-13.312h-106.496q-6.144 0-11.264 4.096t-5.12 10.24l-13.312 87.040q-19.456 6.144-43.008 18.432l-67.584-51.2q-4.096-4.096-11.264-4.096-6.144 0-12.288 4.096-81.92 76.8-81.92 92.16 0 5.12 4.096 10.24 5.12 8.192 23.552 30.72t26.624 34.816q-13.312 24.576-20.48 47.104l-87.040 13.312q-5.12 1.024-9.216 5.12t-4.096 11.264v106.496q0 5.12 4.096 10.24t9.216 6.144l88.064 14.336q7.168 19.456 18.432 43.008-19.456 27.648-51.2 65.536-4.096 6.144-4.096 11.264 0 7.168 4.096 12.288 12.288 16.384 47.104 50.176t45.056 33.792q6.144 0 12.288-4.096l65.536-51.2q19.456 10.24 44.032 18.432 6.144 61.44 13.312 88.064 3.072 13.312 16.384 13.312h106.496q6.144 0 11.264-4.096t6.144-10.24l13.312-87.040q19.456-6.144 43.008-17.408l66.56 50.176q5.12 4.096 12.288 4.096 6.144 0 11.264-4.096 82.944-76.8 82.944-92.16 0-4.096-4.096-10.24-7.168-9.216-24.576-30.72t-25.6-34.816q13.312-27.648 19.456-47.104l87.040-12.288q6.144-2.048 9.216-6.144t4.096-11.264zM1096.704 195.072v-79.872q0-9.216-84.992-17.408-6.144-15.36-16.384-29.696 28.672-64.512 28.672-78.848 0-2.048-2.048-4.096-69.632-40.96-70.656-40.96-5.12 0-26.624 27.648t-29.696 37.888q-11.264-1.024-17.408-1.024t-17.408 1.024q-7.168-11.264-29.696-37.888t-25.6-27.648q-1.024 0-70.656 40.96-3.072 2.048-3.072 4.096 0 14.336 29.696 78.848-10.24 14.336-17.408 29.696-84.992 8.192-84.992 17.408v79.872q0 9.216 84.992 18.432 7.168 16.384 17.408 29.696-29.696 64.512-29.696 78.848 0 2.048 3.072 4.096 2.048 1.024 19.456 11.264t33.792 19.456 17.408 9.216q4.096 0 25.6-26.624t29.696-38.912q12.288 1.024 17.408 1.024t17.408-1.024q28.672 40.96 52.224 64.512l4.096 1.024q2.048 0 70.656-39.936 2.048-2.048 2.048-4.096 0-14.336-28.672-78.848 9.216-13.312 16.384-29.696 84.992-9.216 84.992-18.432zM1096.704 780.8v-79.872q0-9.216-84.992-18.432-6.144-15.36-16.384-29.696 28.672-64.512 28.672-78.848 0-2.048-2.048-4.096-69.632-39.936-70.656-39.936-5.12 0-26.624 26.624t-29.696 38.912q-11.264-1.024-17.408-1.024t-17.408 1.024q-7.168-12.288-29.696-38.912t-25.6-26.624q-1.024 0-70.656 39.936-3.072 2.048-3.072 4.096 0 14.336 29.696 78.848-10.24 14.336-17.408 29.696-84.992 9.216-84.992 18.432v79.872q0 9.216 84.992 17.408 7.168 16.384 17.408 29.696-29.696 64.512-29.696 78.848 0 2.048 3.072 4.096 2.048 1.024 19.456 11.264t33.792 19.456 17.408 9.216q4.096 0 25.6-26.624t29.696-37.888q12.288 1.024 17.408 1.024t17.408-1.024q28.672 39.936 52.224 63.488l4.096 1.024q2.048 0 70.656-39.936 2.048-2.048 2.048-4.096 0-14.336-28.672-78.848 9.216-13.312 16.384-29.696 84.992-8.192 84.992-17.408z" />
<glyph unicode="&#xe828;" glyph-name="sliders" horiz-adv-x="878" d="M200.704 155.136v-72.704h-200.704v72.704h200.704zM402.432 228.864q14.336 0 25.6-11.264t11.264-25.6v-146.432q0-14.336-11.264-25.6t-25.6-11.264h-146.432q-14.336 0-25.6 11.264t-11.264 25.6v146.432q0 15.36 11.264 25.6t25.6 11.264h146.432zM493.568 448v-72.704h-493.568v72.704h493.568zM128 740.864v-73.728h-128v73.728h128zM877.568 155.136v-72.704h-420.864v72.704h420.864zM328.704 813.568q15.36 0 26.624-10.24t10.24-26.624v-145.408q0-15.36-10.24-25.6t-26.624-11.264h-145.408q-15.36 0-25.6 11.264t-11.264 25.6v145.408q0 15.36 11.264 26.624t25.6 10.24h145.408zM695.296 520.704q14.336 0 25.6-10.24t10.24-25.6v-146.432q0-15.36-10.24-25.6t-25.6-11.264h-146.432q-15.36 0-25.6 11.264t-11.264 25.6v146.432q0 14.336 11.264 25.6t25.6 10.24h146.432zM877.568 448v-72.704h-128v72.704h128zM877.568 740.864v-73.728h-493.568v73.728h493.568z" />
<glyph unicode="&#xe829;" glyph-name="clock1" horiz-adv-x="878" d="M512 648.704v-256q0-7.168-5.12-12.288t-13.312-5.12h-182.272q-8.192 0-13.312 5.12t-5.12 12.288v36.864q0 8.192 5.12 13.312t13.312 5.12h128v200.704q0 8.192 5.12 13.312t12.288 5.12h36.864q8.192 0 13.312-5.12t5.12-13.312zM749.568 448q0 84.992-41.984 155.648t-112.64 113.664-155.648 41.984-156.672-41.984-112.64-113.664-41.984-155.648 41.984-155.648 112.64-113.664 156.672-41.984 155.648 41.984 112.64 113.664 41.984 155.648zM877.568 448q0-119.808-58.368-220.16t-159.744-159.744-220.16-59.392-221.184 59.392-158.72 159.744-59.392 220.16 59.392 220.16 158.72 159.744 221.184 59.392 220.16-59.392 159.744-159.744 58.368-220.16z" />
<glyph unicode="&#xe82a;" glyph-name="block" horiz-adv-x="878" d="M749.568 450.048q0 92.16-49.152 167.936l-431.104-430.080q77.824-51.2 169.984-51.2 63.488 0 120.832 25.6t98.304 66.56 66.56 99.328 24.576 121.856zM179.2 279.040l431.104 431.104q-76.8 51.2-171.008 51.2-84.992 0-156.672-40.96t-112.64-113.664-41.984-156.672q0-93.184 51.2-171.008zM877.568 450.048q0-90.112-34.816-172.032t-93.184-140.288-140.288-94.208-169.984-34.816-171.008 34.816-140.288 94.208-93.184 140.288-34.816 172.032 34.816 171.008 93.184 140.288 140.288 93.184 171.008 34.816 169.984-34.816 140.288-93.184 93.184-140.288 34.816-171.008z" />
<glyph unicode="&#xe82b;" glyph-name="level-up" horiz-adv-x="870" d="M204.8 448v-92.16l-204.8 163.84 204.8 174.080v-102.4h563.2q40.96 0 71.68-29.696t30.72-72.704v-286.72h-143.36v245.76h-522.24z" />
<glyph unicode="&#xe82c;" glyph-name="move" d="M1024 448q0-14.336-11.264-25.6l-145.408-146.432q-11.264-11.264-26.624-11.264t-25.6 11.264-10.24 25.6v73.728h-220.16v-220.16h73.728q14.336 0 25.6-10.24t11.264-25.6-11.264-25.6l-146.432-146.432q-10.24-11.264-25.6-11.264t-25.6 11.264l-146.432 146.432q-11.264 10.24-11.264 25.6t11.264 25.6 25.6 10.24h73.728v220.16h-220.16v-73.728q0-14.336-10.24-25.6t-25.6-11.264-25.6 11.264l-146.432 146.432q-11.264 11.264-11.264 25.6t11.264 25.6l146.432 146.432q10.24 11.264 25.6 11.264t25.6-11.264 10.24-25.6v-73.728h220.16v220.16h-73.728q-14.336 0-25.6 10.24t-11.264 25.6 11.264 26.624l146.432 145.408q11.264 11.264 25.6 11.264t25.6-11.264l146.432-145.408q11.264-11.264 11.264-26.624t-11.264-25.6-25.6-10.24h-73.728v-220.16h220.16v73.728q0 14.336 10.24 25.6t25.6 11.264 26.624-11.264l145.408-146.432q11.264-10.24 11.264-25.6z" />
<glyph unicode="&#xe82d;" glyph-name="down-dir" horiz-adv-x="585" d="M584.704 557.568q0-14.336-10.24-25.6l-256-256q-11.264-11.264-25.6-11.264t-25.6 11.264l-256 256q-11.264 11.264-11.264 25.6t11.264 25.6 25.6 11.264h512q14.336 0 25.6-11.264t10.24-25.6z" />
<glyph unicode="&#xe82e;" glyph-name="down-open" d="M961.536 498.176l-423.936-422.912q-10.24-11.264-25.6-11.264t-25.6 11.264l-423.936 422.912q-11.264 11.264-11.264 26.624t11.264 25.6l95.232 94.208q10.24 11.264 25.6 11.264t25.6-11.264l303.104-303.104 303.104 303.104q11.264 11.264 25.6 11.264t26.624-11.264l94.208-94.208q11.264-11.264 11.264-25.6t-11.264-26.624z" />
<glyph unicode="&#xe82f;" glyph-name="left-open" horiz-adv-x="731" d="M669.696 787.968l-304.128-303.104 304.128-304.128q10.24-10.24 10.24-25.6t-10.24-25.6l-95.232-95.232q-11.264-10.24-25.6-10.24t-25.6 10.24l-423.936 424.96q-11.264 10.24-11.264 25.6t11.264 25.6l423.936 423.936q10.24 11.264 25.6 11.264t25.6-11.264l95.232-95.232q10.24-10.24 10.24-25.6t-10.24-25.6z" />
<glyph unicode="&#xe830;" glyph-name="right-open" horiz-adv-x="731" d="M632.832 459.264l-423.936-424.96q-11.264-10.24-25.6-10.24t-25.6 10.24l-95.232 95.232q-11.264 11.264-11.264 25.6t11.264 25.6l303.104 304.128-303.104 303.104q-11.264 11.264-11.264 25.6t11.264 25.6l95.232 95.232q10.24 11.264 25.6 11.264t25.6-11.264l423.936-423.936q10.24-11.264 10.24-25.6t-10.24-25.6z" />
<glyph unicode="&#xe831;" glyph-name="up-open" d="M961.536 199.168l-94.208-94.208q-11.264-10.24-26.624-10.24t-25.6 10.24l-303.104 304.128-303.104-304.128q-11.264-10.24-25.6-10.24t-25.6 10.24l-95.232 94.208q-11.264 11.264-11.264 26.624t11.264 25.6l423.936 423.936q11.264 10.24 25.6 10.24t25.6-10.24l423.936-423.936q11.264-11.264 11.264-25.6t-11.264-26.624z" />
<glyph unicode="&#xe832;" glyph-name="ccw" horiz-adv-x="878" d="M877.568 448q0-89.088-34.816-169.984t-93.184-140.288-140.288-94.208-169.984-34.816q-98.304 0-187.392 41.984t-150.528 116.736q-4.096 6.144-4.096 13.312t5.12 11.264l77.824 78.848q6.144 5.12 14.336 5.12 9.216-1.024 13.312-7.168 41.984-54.272 102.4-83.968t129.024-29.696q59.392 0 112.64 23.552t94.208 62.464 62.464 93.184 22.528 113.664-22.528 113.664-62.464 93.184-94.208 62.464-112.64 23.552q-56.32 0-107.52-20.48t-92.16-58.368l78.848-78.848q17.408-16.384 8.192-38.912-10.24-23.552-33.792-23.552h-256q-15.36 0-25.6 11.264t-11.264 25.6v256q0 24.576 22.528 33.792 22.528 10.24 39.936-8.192l73.728-73.728q61.44 58.368 140.288 90.112t162.816 31.744q89.088 0 169.984-34.816t140.288-94.208 93.184-140.288 34.816-169.984z" />
<glyph unicode="&#xe833;" glyph-name="off" horiz-adv-x="878" d="M877.568 448q0-89.088-34.816-169.984t-93.184-140.288-140.288-94.208-169.984-34.816-171.008 34.816-139.264 94.208-94.208 140.288-34.816 169.984q0 104.448 46.080 195.584t129.024 154.624q24.576 18.432 55.296 14.336t47.104-28.672q18.432-23.552 14.336-54.272t-28.672-48.128q-55.296-41.984-86.016-103.424t-30.72-130.048q0-59.392 23.552-113.664t62.464-93.184 93.184-62.464 113.664-23.552 112.64 23.552 94.208 62.464 62.464 93.184 22.528 113.664q0 69.632-30.72 130.048t-86.016 103.424q-23.552 18.432-28.672 48.128t14.336 54.272q17.408 24.576 48.128 28.672t54.272-14.336q82.944-62.464 129.024-154.624t46.080-195.584zM512 887.296v-366.592q0-29.696-21.504-51.2t-51.2-21.504-52.224 21.504-21.504 51.2v366.592q0 29.696 21.504 51.2t52.224 21.504 51.2-21.504 21.504-51.2z" />
<glyph unicode="&#xe834;" glyph-name="fork" horiz-adv-x="585" d="M164.864 119.296q0 22.528-16.384 38.912t-38.912 15.36-38.912-15.36-15.36-38.912 15.36-38.912 38.912-16.384 38.912 16.384 16.384 38.912zM164.864 776.704q0 23.552-16.384 38.912t-38.912 16.384-38.912-16.384-15.36-38.912 15.36-37.888 38.912-16.384 38.912 16.384 16.384 37.888zM530.432 704q0 22.528-16.384 38.912t-38.912 16.384-38.912-16.384-15.36-38.912 15.36-38.912 38.912-16.384 38.912 16.384 16.384 38.912zM584.704 704q0-29.696-14.336-55.296t-39.936-39.936q-1.024-163.84-129.024-236.544-38.912-21.504-115.712-46.080-73.728-22.528-97.28-39.936t-23.552-57.344v-15.36q24.576-14.336 39.936-39.936t14.336-54.272q0-46.080-31.744-77.824t-77.824-32.768-77.824 32.768-31.744 77.824q0 29.696 15.36 54.272t39.936 39.936v468.992q-25.6 14.336-39.936 39.936t-15.36 54.272q0 46.080 31.744 77.824t77.824 32.768 77.824-32.768 31.744-77.824q0-29.696-14.336-54.272t-39.936-39.936v-283.648q30.72 14.336 88.064 31.744 30.72 10.24 50.176 17.408t39.936 17.408 33.792 22.528 22.528 29.696 16.384 38.912 5.12 52.224q-25.6 14.336-39.936 39.936t-15.36 55.296q0 46.080 31.744 77.824t77.824 31.744 77.824-31.744 31.744-77.824z" />
<glyph unicode="&#xe835;" glyph-name="sort-alt-up" d="M420.864 136.704q0-6.144-6.144-13.312l-182.272-182.272q-5.12-5.12-13.312-5.12-6.144 0-12.288 5.12l-183.296 183.296q-8.192 9.216-4.096 19.456 4.096 11.264 17.408 11.264h109.568v786.432q0 8.192 5.12 13.312t13.312 5.12h109.568q8.192 0 13.312-5.12t5.12-13.312v-786.432h109.568q8.192 0 13.312-5.12t5.12-13.312zM1024 64v-109.568q0-8.192-5.12-13.312t-13.312-5.12h-475.136q-8.192 0-13.312 5.12t-5.12 13.312v109.568q0 8.192 5.12 13.312t13.312 5.12h475.136q8.192 0 13.312-5.12t5.12-13.312zM914.432 356.864v-109.568q0-8.192-5.12-13.312t-13.312-5.12h-365.568q-8.192 0-13.312 5.12t-5.12 13.312v109.568q0 8.192 5.12 13.312t13.312 5.12h365.568q8.192 0 13.312-5.12t5.12-13.312zM804.864 648.704v-109.568q0-7.168-5.12-12.288t-13.312-6.144h-256q-8.192 0-13.312 6.144t-5.12 12.288v109.568q0 8.192 5.12 13.312t13.312 5.12h256q8.192 0 13.312-5.12t5.12-13.312zM695.296 941.568v-109.568q0-8.192-5.12-13.312t-13.312-5.12h-146.432q-8.192 0-13.312 5.12t-5.12 13.312v109.568q0 8.192 5.12 13.312t13.312 5.12h146.432q8.192 0 13.312-5.12t5.12-13.312z" />
<glyph unicode="&#xe836;" glyph-name="sort-alt-down" d="M695.296 64v-109.568q0-8.192-5.12-13.312t-13.312-5.12h-146.432q-8.192 0-13.312 5.12t-5.12 13.312v109.568q0 8.192 5.12 13.312t13.312 5.12h146.432q8.192 0 13.312-5.12t5.12-13.312zM420.864 136.704q0-6.144-6.144-13.312l-182.272-182.272q-5.12-5.12-13.312-5.12-6.144 0-12.288 5.12l-183.296 183.296q-8.192 9.216-4.096 19.456 4.096 11.264 17.408 11.264h109.568v786.432q0 8.192 5.12 13.312t13.312 5.12h109.568q8.192 0 13.312-5.12t5.12-13.312v-786.432h109.568q8.192 0 13.312-5.12t5.12-13.312zM804.864 356.864v-109.568q0-8.192-5.12-13.312t-13.312-5.12h-256q-8.192 0-13.312 5.12t-5.12 13.312v109.568q0 8.192 5.12 13.312t13.312 5.12h256q8.192 0 13.312-5.12t5.12-13.312zM914.432 648.704v-109.568q0-7.168-5.12-12.288t-13.312-6.144h-365.568q-8.192 0-13.312 6.144t-5.12 12.288v109.568q0 8.192 5.12 13.312t13.312 5.12h365.568q8.192 0 13.312-5.12t5.12-13.312zM1024 941.568v-109.568q0-8.192-5.12-13.312t-13.312-5.12h-475.136q-8.192 0-13.312 5.12t-5.12 13.312v109.568q0 8.192 5.12 13.312t13.312 5.12h475.136q8.192 0 13.312-5.12t5.12-13.312z" />
<glyph unicode="&#xe837;" glyph-name="sort-name-up" horiz-adv-x="950" d="M680.96 726.528h100.352l-40.96 124.928-6.144 26.624q-2.048 9.216-2.048 11.264h-2.048l-1.024-11.264q0 0-2.048-10.24t-5.12-16.384zM420.864 136.704q0-6.144-6.144-13.312l-182.272-182.272q-5.12-5.12-13.312-5.12-6.144 0-12.288 5.12l-183.296 183.296q-8.192 9.216-4.096 19.456 4.096 11.264 17.408 11.264h109.568v786.432q0 8.192 5.12 13.312t13.312 5.12h109.568q8.192 0 13.312-5.12t5.12-13.312v-786.432h109.568q8.192 0 13.312-5.12t5.12-13.312zM898.048 69.12v-133.12h-333.824v51.2l210.944 302.080q7.168 11.264 12.288 16.384l6.144 5.12v1.024q-1.024 0-3.072 0t-5.12 0q-6.144-2.048-16.384-2.048h-133.12v-65.536h-68.608v131.072h324.608v-51.2l-210.944-303.104q-4.096-4.096-12.288-14.336l-6.144-7.168v-1.024l8.192 1.024q5.12 2.048 16.384 2.048h142.336v67.584h68.608zM949.248 582.144v-61.44h-164.864v61.44h43.008l-26.624 81.92h-139.264l-26.624-81.92h43.008v-61.44h-163.84v61.44h39.936l131.072 377.856h93.184l131.072-377.856h39.936z" />
<glyph unicode="&#xe838;" glyph-name="sort-name-down" horiz-adv-x="950" d="M680.96 141.824h100.352l-40.96 124.928-6.144 26.624q-2.048 9.216-2.048 11.264h-2.048l-1.024-11.264q0-1.024-2.048-10.24t-5.12-16.384zM420.864 136.704q0-6.144-6.144-13.312l-182.272-182.272q-5.12-5.12-13.312-5.12-6.144 0-12.288 5.12l-183.296 183.296q-8.192 9.216-4.096 19.456 4.096 11.264 17.408 11.264h109.568v786.432q0 8.192 5.12 13.312t13.312 5.12h109.568q8.192 0 13.312-5.12t5.12-13.312v-786.432h109.568q8.192 0 13.312-5.12t5.12-13.312zM949.248-3.584v-60.416h-164.864v60.416h43.008l-26.624 81.92h-139.264l-26.624-81.92h43.008v-60.416h-163.84v60.416h39.936l131.072 378.88h93.184l131.072-378.88h39.936zM898.048 654.848v-134.144h-333.824v52.224l210.944 302.080q7.168 10.24 12.288 15.36l6.144 5.12v2.048q-1.024 0-3.072-1.024t-5.12 0q-6.144-2.048-16.384-2.048h-133.12v-65.536h-68.608v131.072h324.608v-51.2l-210.944-302.080q-4.096-5.12-12.288-15.36l-6.144-5.12v-2.048l8.192 2.048q5.12 0 16.384 0h142.336v68.608h68.608z" />
<glyph unicode="&#xe839;" glyph-name="sort-number-up" horiz-adv-x="878" d="M769.024 209.408q0 36.864-24.576 66.56t-59.392 30.72q-29.696 0-47.104-21.504t-17.408-53.248 20.48-54.272 59.392-22.528q28.672 0 49.152 15.36t19.456 38.912zM420.864 136.704q0-6.144-6.144-13.312l-182.272-182.272q-5.12-5.12-13.312-5.12-6.144 0-12.288 5.12l-183.296 183.296q-8.192 9.216-4.096 19.456 4.096 11.264 17.408 11.264h109.568v786.432q0 8.192 5.12 13.312t13.312 5.12h109.568q8.192 0 13.312-5.12t5.12-13.312v-786.432h109.568q8.192 0 13.312-5.12t5.12-13.312zM848.896 176.64q0-35.84-7.168-69.632t-23.552-65.536-38.912-54.272-56.32-36.864-72.704-14.336q-35.84 0-61.44 9.216-14.336 4.096-24.576 8.192l22.528 64.512q9.216-4.096 17.408-6.144 21.504-7.168 43.008-7.168 48.128 0 76.8 33.792t37.888 82.944h-1.024q-11.264-13.312-34.816-21.504t-48.128-8.192q-60.416 0-99.328 40.96t-37.888 99.328q0 59.392 40.96 101.376t103.424 41.984q70.656 0 117.76-54.272t46.080-144.384zM832.512 586.24v-65.536h-268.288v65.536h95.232v246.784q0 4.096 0 11.264t1.024 9.216v9.216h-2.048l-3.072-7.168q-5.12-7.168-15.36-17.408l-35.84-32.768-46.080 49.152 109.568 105.472h69.632v-373.76h95.232z" />
<glyph unicode="&#xe83a;" glyph-name="sort-number-down" horiz-adv-x="878" d="M769.024 795.136q0 35.84-24.576 66.56t-59.392 29.696q-29.696 0-47.104-21.504t-17.408-53.248 20.48-54.272 59.392-21.504q28.672 0 49.152 15.36t19.456 38.912zM420.864 136.704q0-6.144-6.144-13.312l-182.272-182.272q-5.12-5.12-13.312-5.12-6.144 0-12.288 5.12l-183.296 183.296q-8.192 9.216-4.096 19.456 4.096 11.264 17.408 11.264h109.568v786.432q0 8.192 5.12 13.312t13.312 5.12h109.568q8.192 0 13.312-5.12t5.12-13.312v-786.432h109.568q8.192 0 13.312-5.12t5.12-13.312zM832.512 1.536v-65.536h-268.288v65.536h95.232v246.784q0 4.096 0 10.24t1.024 10.24v9.216h-2.048l-3.072-7.168q-5.12-7.168-15.36-17.408l-35.84-33.792-46.080 49.152 109.568 106.496h69.632v-373.76h95.232zM848.896 761.344q0-34.816-7.168-68.608t-23.552-65.536-38.912-54.272-56.32-37.888-72.704-14.336q-35.84 0-61.44 9.216-14.336 5.12-24.576 9.216l22.528 64.512q9.216-4.096 17.408-6.144 21.504-8.192 43.008-8.192 48.128 0 76.8 33.792t37.888 82.944h-1.024q-11.264-13.312-34.816-20.48t-48.128-8.192q-60.416 0-99.328 40.96t-37.888 98.304q0 60.416 40.96 101.376t103.424 41.984q70.656 0 117.76-54.272t46.080-144.384z" />
<glyph unicode="&#xe83b;" glyph-name="puzzle" horiz-adv-x="950" d="M951.296 332.288q0-46.080-25.6-76.8t-70.656-30.72q-23.552 0-44.032 10.24t-33.792 21.504-32.768 21.504-39.936 10.24q-63.488 0-63.488-70.656 0-22.528 9.216-66.56t8.192-65.536v-3.072q-12.288 0-18.432 0-19.456-2.048-55.296-7.168t-66.56-7.168-55.296-3.072q-35.84 0-59.392 15.36t-23.552 48.128q0 20.48 9.216 39.936t22.528 32.768 21.504 33.792 10.24 44.032q0 45.056-31.744 70.656t-76.8 25.6q-48.128 0-81.92-26.624t-33.792-72.704q0-24.576 9.216-47.104t18.432-36.864 19.456-30.72 8.192-28.672q0-25.6-25.6-51.2-21.504-19.456-66.56-19.456-55.296 0-140.288 13.312-5.12 1.024-16.384 2.048t-15.36 3.072l-7.168 1.024q-1.024 0-2.048 0t-1.024 1.024v584.704q1.024 0 10.24-2.048t19.456-2.048 12.288-2.048q84.992-14.336 140.288-14.336 45.056 0 66.56 20.48 25.6 24.576 25.6 50.176 0 13.312-8.192 29.696t-19.456 29.696-18.432 36.864-9.216 48.128q0 46.080 33.792 72.704t82.944 25.6q45.056 0 75.776-25.6t31.744-70.656q0-23.552-10.24-44.032t-21.504-33.792-22.528-31.744-9.216-40.96q0-32.768 23.552-48.128t59.392-14.336q35.84 0 102.4 8.192t93.184 9.216v-1.024q-1.024-1.024-2.048-9.216t-3.072-19.456-2.048-12.288q-13.312-86.016-13.312-140.288 0-46.080 19.456-66.56 25.6-26.624 51.2-26.624 12.288 0 28.672 8.192t30.72 19.456 36.864 19.456 47.104 8.192q47.104 0 72.704-33.792t26.624-81.92z" />
<glyph unicode="&#xe83c;" glyph-name="facebook" horiz-adv-x="512" d="M512 749.056h-145.408q-14.336 0-25.6-15.36t-11.264-37.888v-104.448h182.272v-151.552h-182.272v-452.608h-174.080v452.608h-155.648v151.552h155.648v88.064q0 96.256 60.416 162.816t150.528 66.56h145.408v-159.744z" />
<glyph unicode="&#xe83d;" glyph-name="gplus" horiz-adv-x="918" d="M49.152 675.328q0 59.392 25.6 104.448t57.344 66.56 70.656 34.816 57.344 15.36 26.624 2.048h235.52v-4.096q0-22.528-79.872-36.864-28.672 0-38.912-6.144 40.96-20.48 55.296-57.344t14.336-98.304q0-104.448-69.632-161.792-38.912-38.912-38.912-55.296 0-18.432 51.2-65.536 106.496-92.16 106.496-182.272 0-143.36-118.784-198.656-69.632-34.816-153.6-34.816h-4.096l-4.096 2.048q-2.048-2.048-4.096-2.048-24.576 0-55.296 5.12t-76.8 21.504-75.776 58.368-29.696 105.472q0 61.44 32.768 103.424t84.992 58.368 90.112 22.528 72.704 6.144h2.048q-16.384 22.528-24.576 48.128t-8.192 39.936l2.048 14.336h-14.336q-65.536 0-112.64 30.72-75.776 45.056-75.776 163.84zM428.032 212.48q-4.096 53.248-44.032 86.016t-105.472 32.768h-16.384q-65.536-2.048-116.736-47.104-47.104-43.008-43.008-96.256t54.272-81.92 121.856-24.576q69.632 4.096 111.616 40.96t37.888 90.112zM366.592 724.48q-30.72 110.592-124.928 110.592-12.288 0-20.48-2.048-40.96-12.288-59.392-63.488-16.384-51.2-2.048-108.544 14.336-53.248 48.128-87.040t72.704-33.792q12.288 0 18.432 2.048 43.008 12.288 64.512 66.56t3.072 115.712zM763.904 546.304h153.6v-96.256h-153.6v-153.6h-96.256v153.6h-153.6v96.256h153.6v153.6h96.256v-153.6z" />
<glyph unicode="&#xe83e;" glyph-name="edit" horiz-adv-x="885" d="M92.16 692.736v-607.232h454.656v268.288l92.16 103.424v-463.872h-638.976v778.24h553.984l-76.8-78.848h-385.024zM859.136 877.056c35.84-34.816 32.768-90.112-3.072-126.976l-58.368-57.344 17.408 76.8-64.512 65.536-75.776-17.408 57.344 58.368c35.84 35.84 92.16 35.84 126.976 1.024zM634.88 775.68c0 3.072 66.56 20.48 76.8 23.552l1.024 1.024 68.608-70.656c-4.096 0-23.552-76.8-23.552-76.8l-379.904-393.216-162.816-36.864-2.048 1.024 41.984 161.792zM381.952 343.552l-46.080 47.104-35.84-6.144-23.552-22.528-10.24-40.96 47.104-46.080 39.936 9.216 23.552 23.552z" />
<glyph unicode="&#xe83f;" glyph-name="phone1" horiz-adv-x="804" d="M804.864 251.392q0-15.36-6.144-39.936t-12.288-38.912q-11.264-28.672-69.632-61.44-53.248-28.672-105.472-28.672-15.36 0-30.72 2.048t-32.768 7.168-26.624 8.192-31.744 11.264-28.672 10.24q-55.296 20.48-99.328 48.128-72.704 45.056-151.552 122.88t-122.88 151.552q-27.648 44.032-47.104 99.328-2.048 5.12-10.24 28.672t-12.288 31.744-8.192 26.624-7.168 32.768-2.048 29.696q0 53.248 29.696 106.496 31.744 58.368 60.416 69.632 14.336 6.144 38.912 12.288t39.936 6.144q8.192 0 12.288-2.048 10.24-3.072 30.72-43.008 6.144-11.264 16.384-31.744t20.48-35.84 17.408-30.72q2.048-2.048 10.24-14.336t12.288-20.48 4.096-16.384q0-11.264-16.384-27.648t-35.84-31.744-34.816-30.72-16.384-25.6q0-5.12 3.072-13.312t4.096-11.264 8.192-14.336 7.168-10.24q43.008-78.848 99.328-135.168t134.144-99.328q1.024 0 10.24-6.144t14.336-8.192 11.264-5.12 13.312-2.048q10.24 0 25.6 16.384t30.72 34.816 31.744 35.84 28.672 16.384q7.168 0 15.36-4.096t20.48-12.288 14.336-10.24q14.336-8.192 30.72-17.408t36.864-20.48 30.72-17.408q39.936-19.456 43.008-29.696 2.048-4.096 2.048-12.288z" />
<glyph unicode="&#xe840;" glyph-name="calendar" horiz-adv-x="950" d="M72.704 8.704h164.864v164.864h-164.864v-164.864zM274.432 8.704h182.272v164.864h-182.272v-164.864zM72.704 210.432h164.864v182.272h-164.864v-182.272zM274.432 210.432h182.272v182.272h-182.272v-182.272zM72.704 429.568h164.864v164.864h-164.864v-164.864zM493.568 8.704h183.296v164.864h-183.296v-164.864zM274.432 429.568h182.272v164.864h-182.272v-164.864zM712.704 8.704h164.864v164.864h-164.864v-164.864zM493.568 210.432h183.296v182.272h-183.296v-182.272zM292.864 704v164.864q0 7.168-6.144 12.288t-12.288 6.144h-36.864q-7.168 0-12.288-6.144t-6.144-12.288v-164.864q0-7.168 6.144-13.312t12.288-5.12h36.864q7.168 0 12.288 5.12t6.144 13.312zM712.704 210.432h164.864v182.272h-164.864v-182.272zM493.568 429.568h183.296v164.864h-183.296v-164.864zM712.704 429.568h164.864v164.864h-164.864v-164.864zM731.136 704v164.864q0 7.168-5.12 12.288t-13.312 6.144h-35.84q-7.168 0-13.312-6.144t-5.12-12.288v-164.864q0-7.168 5.12-13.312t13.312-5.12h35.84q8.192 0 13.312 5.12t5.12 13.312zM951.296 740.864v-732.16q0-29.696-22.528-51.2t-51.2-21.504h-804.864q-29.696 0-51.2 21.504t-21.504 51.2v732.16q0 29.696 21.504 51.2t51.2 21.504h73.728v55.296q0 37.888 26.624 64.512t64.512 26.624h36.864q37.888 0 64.512-26.624t26.624-64.512v-55.296h219.136v55.296q0 37.888 27.648 64.512t64.512 26.624h35.84q37.888 0 65.536-26.624t26.624-64.512v-55.296h72.704q29.696 0 51.2-21.504t22.528-51.2z" />
<glyph unicode="&#xe841;" glyph-name="spin1" d="M507.904 960c-180.224 0-338.944-92.16-431.104-231.424-18.432-27.648-33.792-56.32-47.104-87.040-12.288-29.696-21.504-61.44-28.672-94.208 0 0 0-1.024 0-1.024v0 0c0-1.024 0-2.048 0-2.048 0-7.168 5.12-12.288 11.264-12.288h103.424c5.12 0 10.24 4.096 11.264 9.216 29.696 115.712 111.616 210.944 219.136 259.072 20.48 10.24 41.984 17.408 64.512 23.552 31.744 7.168 63.488 11.264 97.28 11.264v0 0 0c25.6 0 51.2-2.048 75.776-7.168 5.12-1.024 10.24-2.048 14.336-3.072 6.144-1.024 10.24-3.072 14.336-4.096v0c5.12-1.024 11.264 1.024 13.312 6.144l52.224 89.088c0 0 1.024 1.024 1.024 2.048 2.048 6.144-1.024 13.312-7.168 15.36-22.528 7.168-44.032 13.312-66.56 17.408-5.12 1.024-9.216 1.024-13.312 2.048-27.648 5.12-55.296 7.168-83.968 7.168v0 0zM842.752 843.264c-5.12 0-9.216-2.048-11.264-6.144l-51.2-89.088c-3.072-4.096-2.048-10.24 2.048-14.336 29.696-29.696 55.296-64.512 74.752-103.424 4.096-7.168 7.168-14.336 11.264-22.528 19.456-47.104 30.72-99.328 30.72-154.624v0 0c0-78.848-22.528-152.576-63.488-214.016-7.168-11.264-15.36-23.552-24.576-33.792-9.216-11.264-18.432-21.504-28.672-31.744v0 0 0c-4.096-4.096-5.12-10.24-2.048-14.336l51.2-89.088c0-1.024 1.024-2.048 2.048-3.072 4.096-5.12 11.264-5.12 16.384-1.024 59.392 53.248 106.496 119.808 137.216 194.56 6.144 15.36 11.264 29.696 15.36 45.056 14.336 47.104 21.504 96.256 21.504 147.456 0 110.592-34.816 214.016-94.208 297.984-11.264 16.384-23.552 31.744-37.888 47.104-13.312 14.336-26.624 28.672-41.984 41.984v0c-1.024 1.024-1.024 1.024-2.048 1.024-2.048 1.024-4.096 2.048-5.12 2.048zM12.288 364.032v0c-1.024 0-2.048 0-3.072 0-6.144-1.024-10.24-8.192-9.216-14.336 34.816-169.984 152.576-309.248 309.248-374.784 30.72-12.288 62.464-21.504 95.232-28.672 32.768-6.144 67.584-10.24 102.4-10.24v0 0c40.96 0 80.896 5.12 119.808 14.336 7.168 1.024 14.336 3.072 22.528 5.12 6.144 2.048 13.312 5.12 20.48 7.168 1.024 0 2.048 1.024 3.072 1.024 6.144 3.072 8.192 10.24 4.096 16.384l-51.2 89.088c-3.072 5.12-8.192 7.168-13.312 6.144-14.336-4.096-28.672-7.168-43.008-9.216-3.072-1.024-6.144-1.024-8.192-2.048-18.432-2.048-35.84-3.072-54.272-3.072v0 0c-131.072 0-247.808 64.512-318.464 163.84-1.024 0-1.024 0-1.024 0-13.312 19.456-25.6 40.96-35.84 62.464s-18.432 44.032-24.576 66.56c-1.024 6.144-6.144 10.24-11.264 10.24h-103.424z" />
<glyph unicode="&#xe842;" glyph-name="linkedin" horiz-adv-x="878" d="M199.68 602.624v-566.272h-188.416v566.272h188.416zM211.968 777.728q0-41.984-29.696-69.632t-76.8-27.648h-1.024q-47.104 0-75.776 27.648t-28.672 69.632 29.696 69.632 76.8 27.648 75.776-27.648 29.696-69.632zM877.568 360.96v-324.608h-187.392v303.104q0 60.416-23.552 94.208t-72.704 33.792q-35.84 0-59.392-19.456t-36.864-49.152q-6.144-17.408-6.144-46.080v-316.416h-188.416q1.024 228.352 1.024 369.664t0 168.96l-1.024 27.648h188.416v-81.92h-1.024q11.264 18.432 23.552 31.744t31.744 29.696 50.176 24.576 65.536 9.216q97.28 0 156.672-64.512t59.392-190.464z" />
<glyph unicode="&#xe843;" glyph-name="windows" horiz-adv-x="950" d="M390.144 385.536v-372.736l-390.144 54.272v318.464h390.144zM390.144 809.472v-375.808h-390.144v322.56zM951.296 385.536v-449.536l-519.168 71.68v377.856h519.168zM951.296 887.296v-453.632h-519.168v381.952z" />
<glyph unicode="&#xe844;" glyph-name="scissors" d="M548.864 448q14.336 0 25.6-11.264t10.24-25.6-10.24-25.6-25.6-10.24-25.6 10.24-11.264 25.6 11.264 25.6 25.6 11.264zM719.872 411.136l289.792-227.328q16.384-11.264 14.336-31.744-3.072-20.48-19.456-28.672l-73.728-36.864q-7.168-4.096-16.384-4.096-10.24 0-17.408 4.096l-394.24 221.184-63.488-36.864q-4.096-3.072-7.168-3.072 8.192-28.672 6.144-55.296-4.096-44.032-31.744-84.992t-75.776-70.656q-75.776-48.128-157.696-48.128-77.824 0-126.976 45.056-52.224 48.128-45.056 118.784 4.096 43.008 31.744 83.968t74.752 70.656q75.776 48.128 158.72 48.128 47.104 0 86.016-18.432 5.12 8.192 13.312 13.312l69.632 40.96-69.632 41.984q-8.192 5.12-13.312 12.288-38.912-17.408-86.016-17.408-82.944 0-158.72 48.128-47.104 30.72-74.752 70.656t-31.744 83.968q-3.072 33.792 8.192 64.512t36.864 53.248q48.128 45.056 126.976 45.056 81.92 0 157.696-48.128 47.104-29.696 75.776-69.632t31.744-84.992q2.048-27.648-6.144-55.296 3.072-1.024 7.168-3.072l63.488-37.888 394.24 221.184q7.168 5.12 17.408 5.12 9.216 0 16.384-4.096l73.728-36.864q16.384-9.216 19.456-28.672 2.048-20.48-14.336-32.768zM330.752 559.616q26.624 24.576 12.288 62.464t-60.416 66.56q-53.248 33.792-109.568 33.792-43.008 0-64.512-20.48-26.624-24.576-12.288-61.44t60.416-67.584q52.224-33.792 109.568-33.792 41.984 0 64.512 20.48zM282.624 134.656q46.080 28.672 60.416 66.56t-12.288 61.44q-22.528 20.48-64.512 20.48-57.344 0-109.568-33.792-46.080-28.672-60.416-66.56t12.288-61.44q21.504-20.48 64.512-20.48 56.32 0 109.568 33.792zM384 484.864l55.296-33.792v7.168q0 20.48 18.432 31.744l8.192 4.096-45.056 26.624-15.36-14.336q-1.024-2.048-5.12-6.144t-7.168-7.168q-1.024-1.024-2.048-2.048t-2.048-1.024zM512 356.864l55.296-18.432 419.84 328.704-72.704 36.864-439.296-245.76v-65.536l-91.136-54.272 5.12-5.12q1.024-1.024 4.096-3.072 2.048-2.048 6.144-7.168t6.144-6.144l15.36-15.36zM914.432 119.296l72.704 35.84-296.96 233.472-101.376-78.848q-1.024-2.048-7.168-4.096z" />
<glyph unicode="&#xe845;" glyph-name="clipboard" horiz-adv-x="717" d="M645.12 857.6q28.672 0 50.176-21.504t21.504-50.176v-778.24q0-30.72-21.504-51.2t-50.176-20.48h-573.44q-28.672 0-50.176 20.48t-21.504 51.2v778.24q0 28.672 21.504 50.176t50.176 21.504l61.44-153.6h450.56zM542.72 755.2h-368.64l-45.056 102.4h110.592l36.864 102.4h163.84l36.864-102.4h112.64z" />
<glyph unicode="&#xe846;" glyph-name="chat" d="M804.864 520.704q0-78.848-54.272-146.432t-146.432-106.496-201.728-38.912q-49.152 0-100.352 9.216-71.68-50.176-158.72-73.728-21.504-5.12-49.152-9.216h-2.048q-6.144 0-12.288 5.12t-6.144 12.288q-1.024 1.024-1.024 3.072t1.024 4.096 1.024 3.072l1.024 3.072t2.048 3.072 2.048 3.072 3.072 3.072 2.048 2.048q3.072 3.072 13.312 14.336t15.36 16.384 12.288 17.408 14.336 21.504 11.264 25.6q-70.656 40.96-110.592 100.352t-40.96 128q0 79.872 54.272 147.456t146.432 106.496 201.728 38.912 201.728-38.912 146.432-106.496 54.272-147.456zM1024 375.296q0-68.608-40.96-129.024t-110.592-100.352q5.12-14.336 11.264-25.6t14.336-21.504 13.312-16.384 14.336-17.408 13.312-14.336q0 0 2.048-2.048t3.072-3.072 2.048-3.072 2.048-3.072l1.024-3.072t1.024-3.072 1.024-4.096-1.024-3.072q-2.048-8.192-7.168-13.312t-12.288-4.096q-28.672 4.096-49.152 9.216-88.064 23.552-159.744 73.728-51.2-9.216-100.352-9.216-154.624 0-269.312 75.776 32.768-3.072 50.176-3.072 92.16 0 176.128 25.6t151.552 73.728q70.656 53.248 109.568 121.856t37.888 144.384q0 44.032-13.312 87.040 73.728-39.936 116.736-101.376t43.008-131.072z" />
<glyph unicode="&#xe847;" glyph-name="cw" horiz-adv-x="878" d="M877.568 813.568v-256q0-14.336-10.24-25.6t-26.624-11.264h-256q-23.552 0-32.768 23.552-10.24 22.528 7.168 38.912l78.848 78.848q-83.968 78.848-198.656 78.848-59.392 0-113.664-23.552t-93.184-62.464-62.464-93.184-23.552-113.664 23.552-113.664 62.464-93.184 93.184-62.464 113.664-23.552q67.584 0 128 29.696t102.4 83.968q4.096 6.144 13.312 7.168 8.192 0 14.336-5.12l77.824-78.848q5.12-4.096 6.144-11.264t-5.12-13.312q-61.44-75.776-150.528-116.736t-186.368-41.984q-89.088 0-171.008 34.816t-139.264 94.208-94.208 140.288-34.816 169.984 34.816 169.984 94.208 140.288 139.264 94.208 171.008 34.816q83.968 0 161.792-31.744t140.288-90.112l73.728 73.728q17.408 18.432 39.936 8.192 22.528-9.216 22.528-33.792z" />
<glyph unicode="&#xe848;" glyph-name="bold" horiz-adv-x="804" d="M317.44 90.624q41.984-18.432 79.872-18.432 215.040 0 215.040 191.488 0 65.536-23.552 103.424-15.36 24.576-34.816 41.984t-38.912 26.624-46.080 14.336-48.128 6.144-54.272 1.024q-40.96 0-57.344-6.144 0-29.696 0-90.112t-1.024-90.112q0-5.12 0-38.912t0-55.296 2.048-48.128 7.168-37.888zM309.248 517.632q23.552-4.096 62.464-4.096 47.104 0 81.92 7.168t62.464 25.6 43.008 51.2 14.336 80.896q0 39.936-16.384 69.632t-46.080 47.104-61.44 24.576-70.656 8.192q-28.672 0-74.752-7.168 0-28.672 3.072-86.016t2.048-87.040q0-15.36 0-46.080t-1.024-45.056q0-26.624 1.024-38.912zM0 8.704l1.024 54.272q9.216 2.048 49.152 9.216t60.416 15.36q4.096 7.168 7.168 15.36t4.096 19.456 4.096 18.432 1.024 21.504 0 19.456v36.864q0 561.152-12.288 585.728-2.048 5.12-12.288 8.192t-25.6 6.144-28.672 4.096-27.648 3.072-17.408 2.048l-2.048 47.104q56.32 1.024 194.56 6.144t212.992 6.144q13.312 0 38.912-1.024t38.912 0q39.936 0 77.824-7.168t73.728-24.576 61.44-39.936 41.984-60.416 16.384-77.824q0-29.696-9.216-55.296t-22.528-40.96-36.864-32.768-41.984-25.6-48.128-22.528q88.064-20.48 147.456-76.8t58.368-141.312q0-57.344-20.48-103.424t-53.248-73.728-78.848-49.152-93.184-27.648-100.352-8.192q-25.6 0-75.776 2.048t-75.776 1.024q-60.416 0-175.104-6.144t-132.096-7.168z" />
<glyph unicode="&#xe849;" glyph-name="italic" horiz-adv-x="585" d="M0 9.728l10.24 49.152q12.288 4.096 34.816 9.216t40.96 11.264 33.792 13.312q16.384 19.456 23.552 57.344 1.024 4.096 35.84 165.888t64.512 310.272 29.696 168.96v14.336q-13.312 8.192-30.72 11.264t-39.936 4.096-32.768 3.072l10.24 59.392q19.456-1.024 68.608-4.096t86.016-4.096 68.608-1.024q27.648 0 56.32 1.024t69.632 4.096 55.296 4.096q-2.048-22.528-10.24-51.2-17.408-6.144-58.368-16.384t-61.44-19.456q-5.12-10.24-8.192-23.552t-5.12-23.552-4.096-25.6-4.096-24.576q-15.36-83.968-50.176-239.616t-44.032-202.752q-1.024-5.12-7.168-32.768t-11.264-52.224-9.216-47.104-4.096-32.768l1.024-10.24q9.216-3.072 105.472-18.432-2.048-24.576-9.216-56.32-6.144 0-18.432-1.024t-18.432-1.024q-16.384 0-50.176 6.144t-49.152 6.144q-78.848 1.024-117.76 1.024-28.672 0-80.896-5.12t-69.632-7.168z" />
<glyph unicode="&#xe84a;" glyph-name="record" horiz-adv-x="717" d="M358.4 806.4q149.504 0 253.952-104.448t104.448-253.952q0-147.456-104.448-252.928t-253.952-105.472-253.952 105.472-104.448 252.928q0 149.504 104.448 253.952t253.952 104.448z" />
<glyph unicode="&#xe84b;" glyph-name="pause" horiz-adv-x="543" d="M450.56 806.4q92.16 0 92.16-65.536v-583.68q0-67.584-92.16-67.584t-92.16 67.584v583.68q0 65.536 92.16 65.536zM92.16 806.4q92.16 0 92.16-65.536v-583.68q0-67.584-92.16-67.584t-92.16 67.584v583.68q0 65.536 92.16 65.536z" />
<glyph unicode="&#xe84c;" glyph-name="stop" horiz-adv-x="614" d="M538.624 755.2q75.776 0 75.776-65.536v-481.28q0-67.584-75.776-67.584h-460.8q-77.824 0-77.824 67.584v481.28q0 36.864 18.432 51.2t59.392 14.336h460.8z" />
<glyph unicode="&#xe84d;" glyph-name="play" horiz-adv-x="512" d="M497.664 474.624q14.336-10.24 14.336-26.624 0-14.336-14.336-24.576l-438.272-272.384q-24.576-16.384-41.984-6.144t-17.408 40.96v526.336q0 30.72 17.408 40.96t41.984-6.144z" />
<glyph unicode="&#xe84e;" glyph-name="align-left" d="M1024 192v-72.704q0-15.36-11.264-25.6t-25.6-11.264h-950.272q-15.36 0-25.6 11.264t-11.264 25.6v72.704q0 15.36 11.264 25.6t25.6 11.264h950.272q15.36 0 25.6-11.264t11.264-25.6zM804.864 411.136v-72.704q0-15.36-11.264-25.6t-25.6-11.264h-731.136q-15.36 0-25.6 11.264t-11.264 25.6v72.704q0 15.36 11.264 25.6t25.6 11.264h731.136q15.36 0 25.6-11.264t11.264-25.6zM951.296 631.296v-73.728q0-14.336-11.264-25.6t-25.6-11.264h-877.568q-15.36 0-25.6 11.264t-11.264 25.6v73.728q0 14.336 11.264 25.6t25.6 10.24h877.568q14.336 0 25.6-10.24t11.264-25.6zM731.136 850.432v-73.728q0-14.336-10.24-25.6t-25.6-10.24h-658.432q-15.36 0-25.6 10.24t-11.264 25.6v73.728q0 14.336 11.264 25.6t25.6 11.264h658.432q14.336 0 25.6-11.264t10.24-25.6z" />
<glyph unicode="&#xe84f;" glyph-name="align-right" d="M1024 192v-72.704q0-15.36-11.264-25.6t-25.6-11.264h-950.272q-15.36 0-25.6 11.264t-11.264 25.6v72.704q0 15.36 11.264 25.6t25.6 11.264h950.272q15.36 0 25.6-11.264t11.264-25.6zM1024 411.136v-72.704q0-15.36-11.264-25.6t-25.6-11.264h-731.136q-14.336 0-25.6 11.264t-11.264 25.6v72.704q0 15.36 11.264 25.6t25.6 11.264h731.136q15.36 0 25.6-11.264t11.264-25.6zM1024 631.296v-73.728q0-14.336-11.264-25.6t-25.6-11.264h-877.568q-14.336 0-25.6 11.264t-11.264 25.6v73.728q0 14.336 11.264 25.6t25.6 10.24h877.568q15.36 0 25.6-10.24t11.264-25.6zM1024 850.432v-73.728q0-14.336-11.264-25.6t-25.6-10.24h-658.432q-14.336 0-25.6 10.24t-10.24 25.6v73.728q0 14.336 10.24 25.6t25.6 11.264h658.432q15.36 0 25.6-11.264t11.264-25.6z" />
<glyph unicode="&#xe850;" glyph-name="align-center" d="M1024 192v-72.704q0-15.36-11.264-25.6t-25.6-11.264h-950.272q-15.36 0-25.6 11.264t-11.264 25.6v72.704q0 15.36 11.264 25.6t25.6 11.264h950.272q15.36 0 25.6-11.264t11.264-25.6zM804.864 411.136v-72.704q0-15.36-11.264-25.6t-25.6-11.264h-512q-14.336 0-25.6 11.264t-11.264 25.6v72.704q0 15.36 11.264 25.6t25.6 11.264h512q15.36 0 25.6-11.264t11.264-25.6zM951.296 631.296v-73.728q0-14.336-11.264-25.6t-25.6-11.264h-804.864q-14.336 0-25.6 11.264t-11.264 25.6v73.728q0 14.336 11.264 25.6t25.6 10.24h804.864q14.336 0 25.6-10.24t11.264-25.6zM731.136 850.432v-73.728q0-14.336-10.24-25.6t-25.6-10.24h-366.592q-14.336 0-25.6 10.24t-10.24 25.6v73.728q0 14.336 10.24 25.6t25.6 11.264h366.592q14.336 0 25.6-11.264t10.24-25.6z" />
<glyph unicode="&#xe851;" glyph-name="align-justify" d="M1024 192v-72.704q0-15.36-11.264-25.6t-25.6-11.264h-950.272q-15.36 0-25.6 11.264t-11.264 25.6v72.704q0 15.36 11.264 25.6t25.6 11.264h950.272q15.36 0 25.6-11.264t11.264-25.6zM1024 411.136v-72.704q0-15.36-11.264-25.6t-25.6-11.264h-950.272q-15.36 0-25.6 11.264t-11.264 25.6v72.704q0 15.36 11.264 25.6t25.6 11.264h950.272q15.36 0 25.6-11.264t11.264-25.6zM1024 631.296v-73.728q0-14.336-11.264-25.6t-25.6-11.264h-950.272q-15.36 0-25.6 11.264t-11.264 25.6v73.728q0 14.336 11.264 25.6t25.6 10.24h950.272q15.36 0 25.6-10.24t11.264-25.6zM1024 850.432v-73.728q0-14.336-11.264-25.6t-25.6-10.24h-950.272q-15.36 0-25.6 10.24t-11.264 25.6v73.728q0 14.336 11.264 25.6t25.6 11.264h950.272q15.36 0 25.6-11.264t11.264-25.6z" />
<glyph unicode="&#xe852;" glyph-name="indent-left" d="M219.136 648.704v-328.704q0-7.168-5.12-13.312t-13.312-5.12q-7.168 0-12.288 5.12l-164.864 164.864q-5.12 5.12-5.12 13.312t5.12 13.312l164.864 163.84q5.12 5.12 12.288 5.12 8.192 0 13.312-5.12t5.12-13.312zM1024 210.432v-109.568q0-7.168-5.12-13.312t-13.312-5.12h-987.136q-7.168 0-13.312 5.12t-5.12 13.312v109.568q0 7.168 5.12 12.288t13.312 6.144h987.136q7.168 0 13.312-6.144t5.12-12.288zM1024 429.568v-109.568q0-7.168-5.12-13.312t-13.312-5.12h-621.568q-7.168 0-13.312 5.12t-5.12 13.312v109.568q0 7.168 5.12 13.312t13.312 5.12h621.568q7.168 0 13.312-5.12t5.12-13.312zM1024 648.704v-109.568q0-7.168-5.12-12.288t-13.312-6.144h-621.568q-7.168 0-13.312 6.144t-5.12 12.288v109.568q0 8.192 5.12 13.312t13.312 5.12h621.568q7.168 0 13.312-5.12t5.12-13.312zM1024 868.864v-109.568q0-8.192-5.12-13.312t-13.312-5.12h-987.136q-7.168 0-13.312 5.12t-5.12 13.312v109.568q0 7.168 5.12 12.288t13.312 6.144h987.136q7.168 0 13.312-6.144t5.12-12.288z" />
<glyph unicode="&#xe853;" glyph-name="indent-right" d="M200.704 484.864q0-8.192-5.12-13.312l-163.84-164.864q-5.12-5.12-13.312-5.12-7.168 0-13.312 5.12t-5.12 13.312v328.704q0 8.192 5.12 13.312t13.312 5.12 13.312-5.12l163.84-163.84q5.12-5.12 5.12-13.312zM1024 210.432v-109.568q0-7.168-5.12-13.312t-13.312-5.12h-987.136q-7.168 0-13.312 5.12t-5.12 13.312v109.568q0 7.168 5.12 12.288t13.312 6.144h987.136q7.168 0 13.312-6.144t5.12-12.288zM1024 429.568v-109.568q0-7.168-5.12-13.312t-13.312-5.12h-621.568q-7.168 0-13.312 5.12t-5.12 13.312v109.568q0 7.168 5.12 13.312t13.312 5.12h621.568q7.168 0 13.312-5.12t5.12-13.312zM1024 648.704v-109.568q0-7.168-5.12-12.288t-13.312-6.144h-621.568q-7.168 0-13.312 6.144t-5.12 12.288v109.568q0 8.192 5.12 13.312t13.312 5.12h621.568q7.168 0 13.312-5.12t5.12-13.312zM1024 868.864v-109.568q0-8.192-5.12-13.312t-13.312-5.12h-987.136q-7.168 0-13.312 5.12t-5.12 13.312v109.568q0 7.168 5.12 12.288t13.312 6.144h987.136q7.168 0 13.312-6.144t5.12-12.288z" />
<glyph unicode="&#xe854;" glyph-name="list" d="M146.432 210.432v-109.568q0-7.168-5.12-13.312t-13.312-5.12h-109.568q-7.168 0-13.312 5.12t-5.12 13.312v109.568q0 7.168 5.12 12.288t13.312 6.144h109.568q7.168 0 13.312-6.144t5.12-12.288zM146.432 429.568v-109.568q0-7.168-5.12-13.312t-13.312-5.12h-109.568q-7.168 0-13.312 5.12t-5.12 13.312v109.568q0 7.168 5.12 13.312t13.312 5.12h109.568q7.168 0 13.312-5.12t5.12-13.312zM146.432 648.704v-109.568q0-7.168-5.12-12.288t-13.312-6.144h-109.568q-7.168 0-13.312 6.144t-5.12 12.288v109.568q0 8.192 5.12 13.312t13.312 5.12h109.568q7.168 0 13.312-5.12t5.12-13.312zM1024 210.432v-109.568q0-7.168-5.12-13.312t-13.312-5.12h-768q-7.168 0-12.288 5.12t-6.144 13.312v109.568q0 7.168 6.144 12.288t12.288 6.144h768q7.168 0 13.312-6.144t5.12-12.288zM146.432 868.864v-109.568q0-8.192-5.12-13.312t-13.312-5.12h-109.568q-7.168 0-13.312 5.12t-5.12 13.312v109.568q0 7.168 5.12 12.288t13.312 6.144h109.568q7.168 0 13.312-6.144t5.12-12.288zM1024 429.568v-109.568q0-7.168-5.12-13.312t-13.312-5.12h-768q-7.168 0-12.288 5.12t-6.144 13.312v109.568q0 7.168 6.144 13.312t12.288 5.12h768q7.168 0 13.312-5.12t5.12-13.312zM1024 648.704v-109.568q0-7.168-5.12-12.288t-13.312-6.144h-768q-7.168 0-12.288 6.144t-6.144 12.288v109.568q0 8.192 6.144 13.312t12.288 5.12h768q7.168 0 13.312-5.12t5.12-13.312zM1024 868.864v-109.568q0-8.192-5.12-13.312t-13.312-5.12h-768q-7.168 0-12.288 5.12t-6.144 13.312v109.568q0 7.168 6.144 12.288t12.288 6.144h768q7.168 0 13.312-6.144t5.12-12.288z" />
<glyph unicode="&#xe855;" glyph-name="camera" horiz-adv-x="1097" d="M548.864 576q67.584 0 115.712-48.128t48.128-116.736-48.128-115.712-115.712-48.128-116.736 48.128-48.128 115.712 48.128 116.736 116.736 48.128zM951.296 813.568q60.416 0 103.424-43.008t41.984-103.424v-512q0-60.416-41.984-103.424t-103.424-43.008h-804.864q-60.416 0-103.424 43.008t-43.008 103.424v512q0 60.416 43.008 103.424t103.424 43.008h128l28.672 77.824q11.264 27.648 39.936 48.128t59.392 20.48h292.864q29.696 0 58.368-20.48t39.936-48.128l29.696-77.824h128zM548.864 155.136q105.472 0 180.224 75.776t75.776 180.224-75.776 181.248-180.224 74.752-181.248-74.752-74.752-181.248 74.752-180.224 181.248-75.776z" />
<glyph unicode="&#xe856;" glyph-name="picture" horiz-adv-x="1097" d="M365.568 631.296q0-46.080-31.744-77.824t-77.824-32.768-77.824 32.768-31.744 77.824 31.744 77.824 77.824 31.744 77.824-31.744 31.744-77.824zM951.296 411.136v-256h-804.864v109.568l182.272 183.296 92.16-91.136 291.84 291.84zM1005.568 813.568h-914.432q-7.168 0-12.288-5.12t-6.144-13.312v-694.272q0-7.168 6.144-13.312t12.288-5.12h914.432q7.168 0 13.312 5.12t5.12 13.312v694.272q0 8.192-5.12 13.312t-13.312 5.12zM1096.704 795.136v-694.272q0-37.888-26.624-64.512t-64.512-27.648h-914.432q-36.864 0-64.512 27.648t-26.624 64.512v694.272q0 37.888 26.624 64.512t64.512 27.648h914.432q37.888 0 64.512-27.648t26.624-64.512z" />
<glyph unicode="&#xe857;" glyph-name="send" d="M84.992 64l896 384-896 384v-299.008l640-84.992-640-84.992v-299.008z" />
<glyph unicode="&#xe858;" glyph-name="progress-0" d="M793.6 912.896v-932.864h-607.232v932.864h607.232zM699.392 819.712h-419.84v-746.496h419.84v746.496z" />
<glyph unicode="&#xe859;" glyph-name="progress-20" d="M793.6 912.896v-932.864h-607.232v932.864h607.232zM699.392 819.712h-419.84v-746.496h419.84v746.496zM653.312 213.504h-337.92v-93.184h337.92v93.184z" />
<glyph unicode="&#xe85a;" glyph-name="progress-40" d="M793.6 912.896v-932.864h-607.232v932.864h607.232zM699.392 819.712h-419.84v-746.496h419.84v746.496zM653.312 213.504h-337.92v-93.184h337.92v93.184zM653.312 353.792h-337.92v-93.184h337.92v93.184z" />
<glyph unicode="&#xe85b;" glyph-name="up-dir" horiz-adv-x="585" d="M584.704 264.704q0-14.336-10.24-25.6t-25.6-10.24h-512q-15.36 0-25.6 10.24t-11.264 25.6 11.264 26.624l256 256q10.24 10.24 25.6 10.24t25.6-10.24l256-256q10.24-11.264 10.24-26.624z" />
<glyph unicode="&#xe85c;" glyph-name="left-dir" horiz-adv-x="366" d="M365.568 704v-512q0-14.336-10.24-25.6t-26.624-11.264-25.6 11.264l-256 256q-10.24 11.264-10.24 25.6t10.24 25.6l256 256q11.264 11.264 25.6 11.264t26.624-11.264 10.24-25.6z" />
<glyph unicode="&#xe85d;" glyph-name="right-dir" horiz-adv-x="366" d="M328.704 448q0-14.336-10.24-25.6l-256-256q-11.264-11.264-25.6-11.264t-25.6 11.264-11.264 25.6v512q0 15.36 11.264 25.6t25.6 11.264 25.6-11.264l256-256q10.24-10.24 10.24-25.6z" />
<glyph unicode="&#xe85e;" glyph-name="print" horiz-adv-x="950" d="M219.136 82.432h512v146.432h-512v-146.432zM219.136 448h512v219.136h-91.136q-22.528 0-38.912 16.384t-16.384 38.912v91.136h-365.568v-365.568zM877.568 411.136q0 15.36-10.24 25.6t-26.624 11.264-25.6-11.264-10.24-25.6 10.24-25.6 25.6-10.24 26.624 10.24 10.24 25.6zM951.296 411.136v-237.568q0-7.168-6.144-12.288t-12.288-6.144h-128v-91.136q0-22.528-16.384-38.912t-38.912-16.384h-548.864q-22.528 0-37.888 16.384t-16.384 38.912v91.136h-128q-7.168 0-13.312 6.144t-5.12 12.288v237.568q0 45.056 32.768 77.824t76.8 31.744h36.864v311.296q0 22.528 16.384 38.912t37.888 16.384h384q23.552 0 51.2-12.288t43.008-26.624l87.040-87.040q15.36-16.384 27.648-44.032t11.264-50.176v-146.432h35.84q46.080 0 77.824-31.744t32.768-77.824z" />
<glyph unicode="&#xe85f;" glyph-name="bullhorn" horiz-adv-x="1242" d="M257.024 519.68c9.216 0 16.384 9.216 16.384 18.432s-7.168 16.384-16.384 16.384h-102.4c-9.216 0-18.432-7.168-18.432-16.384s9.216-18.432 18.432-18.432h102.4zM257.024 445.952c9.216 0 16.384 9.216 16.384 17.408s-7.168 17.408-16.384 17.408h-102.4c-9.216 0-18.432-8.192-18.432-17.408s9.216-17.408 18.432-17.408h102.4zM472.064 431.616c121.856 0 216.064-43.008 296.96-123.904v385.024c-79.872-83.968-175.104-129.024-296.96-129.024v-132.096zM980.992 656.896l-33.792 34.816 140.288 139.264 34.816-32.768zM1006.592 477.696v49.152h235.52v-49.152h-235.52zM947.2 302.592l33.792 34.816 141.312-141.312-34.816-32.768zM816.128 830.976c20.48 0 36.864-15.36 36.864-34.816v-590.848c0-19.456-16.384-34.816-36.864-34.816s-35.84 15.36-35.84 34.816c-60.416 73.728-165.888 168.96-324.608 168.96h-65.536l143.36-241.664-87.040-63.488c-21.504-11.264-45.056 3.072-57.344 18.432l-178.176 286.72h-96.256s-89.088 48.128-89.088 124.928 89.088 120.832 89.088 120.832h340.992c158.72 0 264.192 98.304 324.608 176.128 0 19.456 15.36 34.816 35.84 34.816z" />
<glyph unicode="&#xe860;" glyph-name="dot" horiz-adv-x="225" d="M112.64 560.64q47.104 0 79.872-32.768t32.768-79.872q0-45.056-32.768-78.848t-79.872-33.792-79.872 33.792-32.768 78.848q0 47.104 32.768 79.872t79.872 32.768z" />
<glyph unicode="&#xe861;" glyph-name="to-end" horiz-adv-x="614" d="M421.888 472.576q14.336-10.24 14.336-24.576 0-12.288-14.336-22.528l-370.688-233.472q-22.528-14.336-36.864-5.12t-14.336 35.84v452.608q0 26.624 14.336 35.84t36.864-5.12zM538.624 747.008q75.776 0 75.776-59.392v-477.184q0-59.392-75.776-59.392-77.824 0-77.824 59.392v477.184q0 59.392 77.824 59.392z" />
<glyph unicode="&#xe862;" glyph-name="to-start" horiz-adv-x="614" d="M178.176 448q0 14.336 14.336 24.576l372.736 233.472q20.48 14.336 34.816 5.12t14.336-35.84v-452.608q0-26.624-14.336-35.84t-34.816 5.12l-372.736 233.472q-14.336 10.24-14.336 22.528zM0 687.616q0 59.392 77.824 59.392 75.776 0 75.776-59.392v-477.184q0-59.392-75.776-59.392-77.824 0-77.824 59.392v477.184z" />
<glyph unicode="&#xe863;" glyph-name="fast-forward" horiz-adv-x="901" d="M886.784 472.576q14.336-10.24 14.336-24.576t-14.336-22.528l-380.928-253.952q-22.528-14.336-37.888-6.144t-15.36 36.864v493.568q0 28.672 15.36 36.864t37.888-6.144zM421.888 472.576q14.336-10.24 14.336-24.576t-14.336-22.528l-368.64-253.952q-20.48-14.336-36.864-6.144t-16.384 36.864v493.568q0 28.672 16.384 36.864t36.864-6.144z" />
<glyph unicode="&#xe864;" glyph-name="fast-backward" horiz-adv-x="901" d="M0 448q0 14.336 14.336 24.576l382.976 253.952q20.48 14.336 36.864 6.144t16.384-36.864v-493.568q0-28.672-16.384-36.864t-36.864 6.144l-382.976 253.952q-14.336 8.192-14.336 22.528zM464.896 448q0 14.336 14.336 24.576l368.64 253.952q20.48 14.336 36.864 6.144t16.384-36.864v-493.568q0-28.672-16.384-36.864t-36.864 6.144l-368.64 253.952q-14.336 8.192-14.336 22.528z" />
<glyph unicode="&#xe865;" glyph-name="comment" d="M1024 448q0-99.328-68.608-183.296t-186.368-133.12-257.024-49.152q-39.936 0-82.944 4.096-112.64-99.328-263.168-138.24-27.648-8.192-64.512-12.288-10.24-1.024-17.408 5.12t-10.24 16.384v1.024q-2.048 2.048 0 6.144t1.024 6.144 2.048 5.12l4.096 5.12t4.096 5.12 4.096 5.12q4.096 5.12 17.408 19.456t20.48 22.528 17.408 22.528 18.432 28.672 15.36 33.792 15.36 43.008q-90.112 51.2-141.312 125.952t-52.224 160.768q0 74.752 40.96 142.336t108.544 116.736 163.84 77.824 198.656 28.672q139.264 0 257.024-49.152t186.368-133.12 68.608-183.296z" />
<glyph unicode="&#xe866;" glyph-name="progress-60" d="M793.6 912.896v-932.864h-607.232v932.864h607.232zM699.392 819.712h-419.84v-746.496h419.84v746.496zM653.312 213.504h-337.92v-93.184h337.92v93.184zM653.312 353.792h-337.92v-93.184h337.92v93.184zM653.312 495.104h-337.92v-93.184h337.92v93.184z" />
<glyph unicode="&#xe867;" glyph-name="progress-80" d="M793.6 912.896v-932.864h-607.232v932.864h607.232zM699.392 819.712h-419.84v-746.496h419.84v746.496zM653.312 213.504h-337.92v-93.184h337.92v93.184zM653.312 353.792h-337.92v-93.184h337.92v93.184zM653.312 495.104h-337.92v-93.184h337.92v93.184zM653.312 633.344h-337.92v-93.184h337.92v93.184z" />
<glyph unicode="&#xe868;" glyph-name="invoice" d="M994.304 909.824c-77.824 0-921.6 0-964.608 0-16.384 0-29.696-13.312-29.696-29.696s13.312-29.696 29.696-29.696h72.704v-834.56c0-10.24 5.12-19.456 13.312-24.576 8.192-6.144 18.432-7.168 27.648-3.072l179.2 74.752 178.176-74.752c7.168-3.072 15.36-3.072 22.528 0l179.2 74.752 178.176-74.752c9.216-4.096 19.456-3.072 27.648 3.072 9.216 5.12 13.312 14.336 13.312 24.576v834.56h72.704c16.384 0 29.696 13.312 29.696 29.696s-13.312 29.696-29.696 29.696zM862.208 60.928l-148.48 62.464c-7.168 3.072-15.36 3.072-23.552 0l-178.176-74.752-178.176 74.752c-7.168 3.072-16.384 3.072-23.552 0l-148.48-62.464v789.504h700.416v-789.504zM662.528 750.080h-300.032c-17.408 0-30.72-13.312-30.72-29.696s13.312-30.72 30.72-30.72h300.032c16.384 0 29.696 13.312 29.696 30.72s-13.312 29.696-29.696 29.696zM732.16 510.464h-280.576c-16.384 0-29.696-14.336-29.696-30.72s13.312-29.696 29.696-29.696h280.576c16.384 0 29.696 13.312 29.696 29.696s-13.312 30.72-29.696 30.72zM732.16 349.696h-280.576c-16.384 0-29.696-13.312-29.696-29.696s13.312-29.696 29.696-29.696h280.576c16.384 0 29.696 13.312 29.696 29.696s-13.312 29.696-29.696 29.696z" />
<glyph unicode="&#xe869;" glyph-name="volume-off" d="M0 653.824h312.32l353.28 288.768v-988.16l-353.28 285.696h-234.496zM730.112 364.032q0 4.096 2.048 6.144l77.824 77.824-77.824 77.824q-2.048 2.048-2.048 6.144t2.048 6.144l54.272 54.272q2.048 2.048 5.12 2.048t6.144-2.048l77.824-77.824 78.848 77.824q4.096 2.048 6.144 2.048t5.12-2.048l56.32-54.272q2.048-2.048 2.048-6.144t-2.048-6.144l-77.824-77.824 77.824-77.824q2.048-4.096 2.048-7.168t-2.048-5.12l-56.32-55.296q-2.048-2.048-5.12-2.048t-6.144 2.048l-78.848 79.872-77.824-79.872q-2.048-2.048-5.12-2.048t-6.144 2.048l-54.272 55.296q-2.048 2.048-2.048 6.144z" />
<glyph unicode="&#xe86a;" glyph-name="drag" d="M91.136 696.832h808.96v-149.504h-808.96zM91.136 368.128h808.96v-155.648h-808.96z" />
<glyph unicode="&#xe86b;" glyph-name="progress-100" d="M793.6 912.896v-932.864h-607.232v932.864h607.232zM699.392 819.712h-419.84v-746.496h419.84v746.496zM653.312 213.504h-337.92v-93.184h337.92v93.184zM653.312 353.792h-337.92v-93.184h337.92v93.184zM653.312 495.104h-337.92v-93.184h337.92v93.184zM653.312 633.344h-337.92v-93.184h337.92v93.184zM653.312 773.632h-337.92v-93.184h337.92v93.184z" />
<glyph unicode="&#xe86c;" glyph-name="greater-then-zero" d="M467.968 411.136v-40.96l-404.48-333.824-40.96 88.064 253.952 208.896 97.28 55.296-96.256 46.080-260.096 207.872 40.96 87.040zM560.128 420.352q0 259.072 62.464 390.144 63.488 131.072 183.296 131.072 129.024 0 187.392-129.024t58.368-392.192q0-260.096-62.464-391.168t-183.296-131.072q-128 0-186.368 137.216-59.392 137.216-59.392 385.024zM649.216 420.352q0-94.208 8.192-172.032 10.24-75.776 29.696-132.096 18.432-55.296 48.128-87.040 29.696-29.696 70.656-29.696 80.896 0 118.784 100.352 37.888 102.4 37.888 320.512 0 92.16-8.192 169.984-7.168 77.824-26.624 134.144-18.432 56.32-48.128 86.016-29.696 30.72-73.728 30.72-80.896 0-118.784-102.4t-37.888-318.464z" />
<glyph unicode="&#xe86d;" glyph-name="flow-split" horiz-adv-x="854" d="M694.272 235.008q66.56 0 112.64-47.104t47.104-113.664-47.104-112.64-112.64-47.104q-51.2 0-93.184 29.696t-58.368 77.824h-168.96q-109.568 0-188.416 77.824t-78.848 188.416v382.976q-46.080 16.384-76.8 58.368t-29.696 92.16q0 66.56 47.104 113.664t112.64 47.104 113.664-47.104 47.104-113.664q0-51.2-30.72-92.16t-75.776-58.368v-9.216q0-66.56 46.080-113.664t113.664-46.080h168.96q16.384 46.080 58.368 75.776t93.184 30.72q66.56 0 112.64-47.104t47.104-113.664-47.104-112.64-112.64-47.104q-51.2 0-93.184 29.696t-58.368 76.8h-168.96q-86.016 0-159.744 55.296v-161.792q0-66.56 46.080-113.664t113.664-46.080h168.96q16.384 46.080 58.368 75.776t93.184 30.72zM694.272 502.272q-22.528 0-37.888-16.384t-16.384-37.888 16.384-37.888 37.888-15.36 36.864 15.36 15.36 37.888-15.36 37.888-36.864 16.384zM159.744 875.008q-21.504 0-37.888-15.36t-15.36-37.888 15.36-37.888 37.888-15.36 37.888 15.36 16.384 37.888-16.384 37.888-37.888 15.36zM694.272 22.016q21.504 0 36.864 15.36t15.36 36.864-15.36 37.888-36.864 16.384-37.888-16.384-16.384-37.888 16.384-36.864 37.888-15.36z" />
<glyph unicode="&#xe86e;" glyph-name="facebook-squared" horiz-adv-x="878" d="M712.704 887.296q68.608 0 116.736-49.152t48.128-115.712v-548.864q0-67.584-48.128-115.712t-116.736-49.152h-106.496v340.992h113.664l16.384 132.096h-130.048v84.992q0 31.744 13.312 47.104t52.224 16.384l69.632 1.024v117.76q-35.84 5.12-102.4 5.12-76.8 0-123.904-45.056t-46.080-130.048v-97.28h-114.688v-132.096h114.688v-340.992h-304.128q-68.608 0-116.736 49.152t-48.128 115.712v548.864q0 67.584 48.128 115.712t116.736 49.152h547.84z" />
<glyph unicode="&#xe86f;" glyph-name="linkedin-squared" horiz-adv-x="878" d="M135.168 152.064h132.096v396.288h-132.096v-396.288zM276.48 671.232q-1.024 29.696-21.504 49.152t-52.224 19.456-54.272-19.456-21.504-49.152q0-29.696 20.48-49.152t53.248-19.456v0q33.792 0 54.272 19.456t21.504 49.152zM610.304 152.064h132.096v227.328q0 88.064-41.984 133.12t-109.568 45.056q-77.824 0-119.808-66.56h1.024v57.344h-132.096q2.048-37.888 0-396.288h132.096v222.208q0 21.504 4.096 31.744 8.192 19.456 25.6 33.792t41.984 14.336q66.56 0 66.56-90.112v-211.968zM877.568 722.432v-548.864q0-67.584-48.128-115.712t-116.736-49.152h-547.84q-68.608 0-116.736 49.152t-48.128 115.712v548.864q0 67.584 48.128 115.712t116.736 49.152h547.84q68.608 0 116.736-49.152t48.128-115.712z" />
<glyph unicode="&#xe870;" glyph-name="youtube-squared" horiz-adv-x="878" d="M525.312 215.552v90.112q0 27.648-16.384 27.648-10.24 0-19.456-8.192v-128q9.216-9.216 19.456-9.216 16.384 0 16.384 27.648zM630.784 285.184h36.864v19.456q0 28.672-18.432 28.672t-18.432-28.672v-19.456zM304.128 436.736v-39.936h-46.080v-241.664h-41.984v241.664h-45.056v39.936h133.12zM418.816 365.056v-209.92h-37.888v23.552q-22.528-25.6-44.032-25.6-18.432 0-23.552 15.36-3.072 10.24-3.072 30.72v165.888h36.864v-154.624q0-13.312 1.024-14.336 0-8.192 8.192-8.192 11.264 0 24.576 17.408v159.744h37.888zM563.2 301.568v-82.944q0-29.696-4.096-41.984-7.168-23.552-30.72-23.552-19.456 0-38.912 22.528v-20.48h-37.888v281.6h37.888v-91.136q18.432 22.528 38.912 22.528 23.552 0 30.72-24.576 4.096-11.264 4.096-41.984zM706.56 227.84v-5.12q0-16.384-1.024-24.576-2.048-12.288-9.216-22.528-15.36-22.528-45.056-22.528t-47.104 21.504q-11.264 15.36-11.264 49.152v73.728q0 33.792 11.264 49.152 16.384 21.504 46.080 21.504t44.032-21.504q12.288-16.384 12.288-49.152v-44.032h-75.776v-36.864q0-28.672 19.456-28.672 13.312 0 16.384 14.336 0 1.024 1.024 4.096t0 9.216v12.288h38.912zM448.512 698.88v-89.088q0-28.672-18.432-28.672t-18.432 28.672v89.088q0 29.696 18.432 29.696t18.432-29.696zM753.664 291.328q0 101.376-11.264 148.48-6.144 25.6-24.576 41.984t-43.008 20.48q-77.824 8.192-235.52 8.192t-235.52-8.192q-24.576-3.072-43.008-20.48t-24.576-41.984q-11.264-49.152-11.264-148.48 0-100.352 11.264-148.48 5.12-24.576 24.576-41.984t43.008-19.456q77.824-9.216 235.52-9.216t235.52 9.216q24.576 2.048 43.008 19.456t23.552 41.984q12.288 48.128 12.288 148.48zM321.536 663.040l51.2 169.984h-41.984l-29.696-111.616-29.696 111.616h-45.056q4.096-13.312 13.312-39.936l13.312-38.912q20.48-59.392 26.624-91.136v-114.688h41.984v114.688zM486.4 616.96v74.752q0 32.768-11.264 49.152-16.384 22.528-45.056 22.528t-44.032-22.528q-12.288-16.384-12.288-49.152v-74.752q0-32.768 12.288-49.152 15.36-22.528 44.032-22.528t45.056 22.528q11.264 15.36 11.264 49.152zM590.848 548.352h37.888v211.968h-37.888v-161.792q-13.312-17.408-24.576-17.408-8.192 0-9.216 8.192 0 2.048 0 15.36v155.648h-38.912v-167.936q0-20.48 4.096-30.72 6.144-16.384 24.576-16.384 20.48 0 44.032 26.624v-23.552zM877.568 722.432v-548.864q0-67.584-48.128-115.712t-116.736-49.152h-547.84q-68.608 0-116.736 49.152t-48.128 115.712v548.864q0 67.584 48.128 115.712t116.736 49.152h547.84q68.608 0 116.736-49.152t48.128-115.712z" />
<glyph unicode="&#xe871;" glyph-name="pinterest-squared" horiz-adv-x="878" d="M712.704 887.296q68.608 0 116.736-49.152t48.128-115.712v-548.864q0-67.584-48.128-115.712t-116.736-49.152h-413.696q48.128 69.632 61.44 120.832 5.12 19.456 30.72 118.784 11.264-21.504 41.984-37.888t64.512-16.384q103.424 0 167.936 84.992t65.536 212.992q0 48.128-19.456 93.184t-55.296 78.848-87.040 55.296-112.64 21.504q-59.392 0-111.616-16.384t-87.040-44.032-61.44-62.464-37.888-72.704-12.288-75.776q0-58.368 22.528-103.424t66.56-62.464q7.168-3.072 13.312 0t8.192 10.24q6.144 25.6 9.216 35.84 3.072 12.288-7.168 23.552-28.672 35.84-28.672 86.016 0 84.992 59.392 146.432t154.624 60.416q84.992 0 133.12-46.080t48.128-119.808q0-96.256-38.912-163.84t-99.328-67.584q-33.792 0-55.296 25.6t-13.312 58.368q5.12 19.456 15.36 53.248t16.384 58.368 6.144 43.008q0 27.648-14.336 46.080t-43.008 18.432q-34.816 0-59.392-31.744t-24.576-79.872q0-40.96 13.312-69.632l-55.296-236.544q-14.336-57.344-4.096-145.408h-104.448q-68.608 0-116.736 49.152t-48.128 115.712v548.864q0 67.584 48.128 115.712t116.736 49.152h547.84z" />
<glyph unicode="&#xe872;" glyph-name="rss-squared" horiz-adv-x="878" d="M292.864 228.864q0 29.696-21.504 51.2t-52.224 21.504-51.2-21.504-21.504-51.2 21.504-52.224 51.2-21.504 52.224 21.504 21.504 52.224zM493.568 174.592q-8.192 133.12-101.376 227.328t-226.304 100.352q-8.192 1.024-14.336-5.12t-5.12-13.312v-72.704q0-7.168 5.12-12.288t12.288-6.144q88.064-6.144 150.528-69.632t68.608-150.528q1.024-7.168 6.144-12.288t12.288-5.12h73.728q7.168 0 13.312 6.144t5.12 13.312zM712.704 174.592q-3.072 88.064-31.744 169.984t-79.872 148.48-117.76 116.736-148.48 79.872-169.984 31.744q-7.168 1.024-13.312-5.12-5.12-5.12-5.12-13.312v-72.704q0-7.168 5.12-12.288t12.288-6.144q116.736-4.096 216.064-63.488t159.744-158.72 63.488-216.064q0-8.192 5.12-13.312t13.312-5.12h72.704q7.168 0 13.312 6.144 6.144 5.12 5.12 13.312zM877.568 722.432v-548.864q0-67.584-48.128-115.712t-116.736-49.152h-547.84q-68.608 0-116.736 49.152t-48.128 115.712v548.864q0 67.584 48.128 115.712t116.736 49.152h547.84q68.608 0 116.736-49.152t48.128-115.712z" />
<glyph unicode="&#xe873;" glyph-name="twitter-squared" horiz-adv-x="878" d="M877.568 722.432v-548.864c0-45.056-16.042-83.626-48.128-115.712s-70.998-48.47-116.736-49.152h-547.84c-45.738 0-84.65 16.384-116.736 49.152s-48.128 71.338-48.128 115.712v548.864c0 45.056 16.042 83.626 48.128 115.712s70.998 48.47 116.736 49.152h547.84c45.738 0 84.65-16.384 116.736-49.152s48.128-71.338 48.128-115.712zM604.186 738.966l-161.844-185.002-139.932 185.002h-202.668l242.156-316.65-229.508-262.316h98.276l177.134 202.4 154.808-202.4h197.65l-252.43 333.722 214.574 245.244h-98.216zM569.714 218.788h54.424l-351.3 464.478h-58.4l355.276-464.478z" />
<glyph unicode="&#xe874;" glyph-name="megaphone" d="M0 441.856v125.952q2.048 35.84 26.624 61.44t59.392 24.576h276.48q141.312 8.192 278.528 66.56t234.496 155.648q36.864-2.048 60.416-26.624t23.552-59.392v-203.776q28.672-8.192 46.080-30.72t18.432-51.2q-2.048-30.72-19.456-52.224t-45.056-27.648v-205.824q-1.024-36.864-26.624-60.416t-57.344-24.576q-211.968 188.416-459.776 216.064-67.584-33.792-54.272-130.048t78.848-145.408q-28.672-48.128-98.304-53.248t-107.52 30.72q-16.384 46.080-25.6 77.824t-16.384 72.704-7.168 79.872 10.24 73.728h-109.568q-35.84 2.048-61.44 27.648t-24.576 58.368zM448.512 431.616q245.76-45.056 429.056-187.392v520.192q-207.872-154.624-429.056-186.368v-146.432z" />
<glyph unicode="&#xe875;" glyph-name="water" horiz-adv-x="963" d="M172.032 953.856q10.24-88.064 51.2-158.72t74.752-125.952 33.792-114.688q0-67.584-49.152-115.712t-116.736-48.128-116.736 48.128-49.152 115.712q0 59.392 33.792 114.688t74.752 125.952 51.2 158.72q2.048 4.096 7.168 4.096t5.12-4.096zM802.816 953.856q10.24-88.064 51.2-158.72t74.752-125.952 33.792-114.688q0-67.584-49.152-115.712t-116.736-48.128-116.736 48.128-49.152 115.712q0 49.152 21.504 95.232t49.152 79.872 54.272 94.208 34.816 130.048q2.048 4.096 7.168 4.096t5.12-4.096zM475.136 499.2q2.048 4.096 7.168 4.096t5.12-4.096q10.24-88.064 51.2-158.72t74.752-125.952 33.792-114.688q0-67.584-49.152-115.712t-116.736-48.128-116.736 48.128-49.152 115.712q0 59.392 33.792 114.688t74.752 125.952 51.2 158.72z" />
<glyph unicode="&#xe900;" glyph-name="tik-tok" d="M958.507 539.051c-91.264 0-175.872 29.184-244.907 78.763v-357.76c0-178.688-145.365-324.011-324.011-324.011-69.035 0-133.077 21.76-185.685 58.709-83.541 58.667-138.325 155.691-138.325 265.301 0 178.688 145.365 324.053 324.053 324.053 14.848 0 29.355-1.237 43.648-3.157v-179.712c-13.824 4.309-28.416 6.827-43.648 6.827-81.579 0-147.968-66.389-147.968-148.011 0-56.832 32.256-106.197 79.36-130.987 20.523-10.795 43.861-16.981 68.651-16.981 79.701 0 144.725 63.403 147.712 142.421l0.128 705.493h176.043c0-15.275 1.493-30.165 4.139-44.672 12.416-67.072 52.224-124.629 107.392-160.597 38.4-25.045 84.224-39.68 133.376-39.68v-176z" />
<glyph unicode="&#xe901;" glyph-name="envelope" d="M896 917.333h-768c-70.692 0-128-57.308-128-128v0-810.667h1024v810.667c0 70.692-57.308 128-128 128v0zM886.357 789.333l-304.427-304.427c-18.142-17.35-42.789-28.030-69.931-28.030s-51.789 10.68-69.968 28.066l0.038-0.036-304.427 304.427zM128 106.667v511.275l223.531-223.531c41.057-41.074 97.785-66.48 160.448-66.48s119.391 25.406 160.447 66.479l223.574 223.531v-511.275z" />
<glyph unicode="&#xe902;" glyph-name="reschedule-icon" d="M759.906 706.306c-64.399 62.906-152.387 101.685-249.34 101.685-197.222 0-357.344-160.471-357.344-358.125s160.122-358.125 357.344-358.125c197.224 0 357.344 160.471 357.344 358.125 0 30.676-3.858 60.455-11.107 88.862l113.593-43.394c1.464-14.94 2.215-30.118 2.215-45.469 0-255.010-207.035-462.045-462.045-462.045-255.008 0-462.043 207.035-462.043 462.045 0 255.008 207.035 462.043 462.043 462.043 128.805 0 245.372-52.818 329.188-137.943l54.606 46.269 32.763-170.347c0.344-0.712 0.695-1.444 1.044-2.178l-0.675 0.258 15.321-79.646-240.547 89.142 57.641 48.843zM409.544 685.042c0-18.99-15.394-34.384-34.384-34.384s-34.384 15.394-34.384 34.384c0 18.99 15.394 34.384 34.384 34.384s34.384-15.394 34.384-34.384zM308.141 585.643c0-18.99-15.394-34.384-34.384-34.384s-34.384 15.394-34.384 34.384c0 18.99 15.394 34.384 34.384 34.384s34.384-15.394 34.384-34.384zM272.256 448.41c0-18.99-15.394-34.384-34.384-34.384s-34.384 15.394-34.384 34.384c0 18.99 15.394 34.384 34.384 34.384s34.384-15.394 34.384-34.384zM309.842 311.197c0-18.99-15.394-34.384-34.384-34.384s-34.384 15.394-34.384 34.384c0 18.99 15.394 34.384 34.384 34.384s34.384-15.394 34.384-34.384zM409.332 211.353c0-18.99-15.394-34.384-34.384-34.384s-34.384 15.394-34.384 34.384c0 18.99 15.394 34.384 34.384 34.384s34.384-15.394 34.384-34.384zM682.554 685.536c0-18.99-15.394-34.384-34.384-34.384s-34.384 15.394-34.384 34.384c0 18.99 15.394 34.384 34.384 34.384s34.384-15.394 34.384-34.384zM783.564 585.064c0-18.99-15.394-34.384-34.384-34.384s-34.384 15.394-34.384 34.384c0 18.99 15.394 34.384 34.384 34.384s34.384-15.394 34.384-34.384zM820.403 448.41c0-18.99-15.394-34.384-34.384-34.384s-34.384 15.394-34.384 34.384c0 18.99 15.394 34.384 34.384 34.384s34.384-15.394 34.384-34.384zM783.768 311.197c0-18.99-15.394-34.384-34.384-34.384s-34.384 15.394-34.384 34.384c0 18.99 15.394 34.384 34.384 34.384s34.384-15.394 34.384-34.384zM506.038 397.112l0.133-0.295-112.981-57.351c-1.552-0.945-3.18-1.775-4.874-2.475l-0.788-0.398-0.037 0.071c-3.895-1.493-8.123-2.311-12.541-2.311-19.368 0-35.091 15.723-35.091 35.091 0 11.984 6.021 22.572 15.203 28.905l-0.034 0.066 106.098 68.586 15.375 253.689c0 19.365 15.726 35.091 35.091 35.091 19.368 0 35.091-15.726 35.091-35.091l16.121-265.98c0.253-2.068 0.381-4.17 0.381-6.301 0-28.476-23.117-51.593-51.593-51.593-1.876 0-3.73 0.098-5.552 0.295zM682.554 211.353c0-18.99-15.394-34.384-34.384-34.384s-34.384 15.394-34.384 34.384c0 18.99 15.394 34.384 34.384 34.384s34.384-15.394 34.384-34.384zM545.974 175.518c0-18.99-15.394-34.384-34.384-34.384s-34.384 15.394-34.384 34.384c0 18.99 15.394 34.384 34.384 34.384s34.384-15.394 34.384-34.384z" />
<glyph unicode="&#xe903;" glyph-name="iconfnt" d="M535.925-30.736l-190.075 193.905h143.634c0 22.981-9.576 214.493-201.087 236.995-14.364-40.696-46.442-73.253-87.617-87.617-74.69-26.333-156.561 12.927-183.372 87.617-26.333 74.69 12.927 157.040 87.617 183.372s157.039-12.927 183.372-87.617c172.361-14.843 302.589-162.307 295.407-335.146h143.634l-191.512-191.512zM823.194 495.919h-293.013c31.6-27.769 58.89-59.847 80.914-95.756h212.099v-143.634l191.512 191.512-191.512 191.511v-143.634zM507.677 513.634c-26.811 19.63-56.017 35.43-86.659 47.399 43.090 48.357 65.593 110.119 67.029 174.276h-143.634l191.512 191.512 191.512-191.512h-143.634c0-79.956-27.29-157.997-76.126-221.675z" />
<glyph unicode="&#xe904;" glyph-name="plus" d="M833.108 477.268v-91.801c0-12.578-4.57-23.445-13.725-32.6-9.147-9.147-20.014-13.442-32.6-12.869h-199.038v-199.894c0-12.578-4.57-23.162-13.725-31.744-9.147-8.574-20.014-13.152-32.6-13.725h-91.793c-12.586 0-23.453 4.577-32.6 13.725-9.155 9.155-13.442 19.731-12.869 31.744v199.894h-199.038c-13.159 0-24.026 4.287-32.6 12.869-8.582 8.582-13.159 19.448-13.725 32.6v91.801c0 13.152 4.57 24.018 13.725 32.6 9.147 8.574 20.014 13.152 32.6 13.725h199.038v199.038c0 12.578 4.287 23.445 12.869 32.6 8.574 9.147 19.441 13.725 32.6 13.725h91.793c13.152 0 24.026-4.577 32.6-13.725 8.582-9.155 13.159-20.021 13.725-32.6v-199.038h199.038c13.159 0 24.026-4.577 32.6-13.725 8.582-9.155 13.159-20.021 13.725-32.6z" />
</font>
</defs>
</svg>
